<?xml version="1.0" encoding="utf-8" standalone="no"?>
<!DOCTYPE svg PUBLIC "-//W3C//DTD SVG 1.1//EN"
  "http://www.w3.org/Graphics/SVG/1.1/DTD/svg11.dtd">
<svg xmlns:xlink="http://www.w3.org/1999/xlink" width="460.8pt" height="345.6pt" viewBox="0 0 460.8 345.6" xmlns="http://www.w3.org/2000/svg" version="1.1">
 <metadata>
  <rdf:RDF xmlns:dc="http://purl.org/dc/elements/1.1/" xmlns:cc="http://creativecommons.org/ns#" xmlns:rdf="http://www.w3.org/1999/02/22-rdf-syntax-ns#">
   <cc:Work>
    <dc:type rdf:resource="http://purl.org/dc/dcmitype/StillImage"/>
    <dc:date>2025-01-22T16:26:55.764939</dc:date>
    <dc:format>image/svg+xml</dc:format>
    <dc:creator>
     <cc:Agent>
      <dc:title>Matplotlib v3.9.3, https://matplotlib.org/</dc:title>
     </cc:Agent>
    </dc:creator>
   </cc:Work>
  </rdf:RDF>
 </metadata>
 <defs>
  <style type="text/css">*{stroke-linejoin: round; stroke-linecap: butt}</style>
 </defs>
 <g id="figure_1">
  <g id="patch_1">
   <path d="M 0 345.6 
L 460.8 345.6 
L 460.8 0 
L 0 0 
z
" style="fill: #ffffff"/>
  </g>
  <g id="axes_1">
   <g id="patch_2">
    <path d="M 57.6 307.584 
L 414.72 307.584 
L 414.72 41.472 
L 57.6 41.472 
z
" style="fill: #ffffff"/>
   </g>
   <g id="patch_3">
    <path d="M 73.832727 307.584 
L 77.112066 307.584 
L 77.112066 307.584 
L 73.832727 307.584 
z
" clip-path="url(#p816a077e8a)" style="fill: #1f77b4; opacity: 0.5"/>
   </g>
   <g id="patch_4">
    <path d="M 77.112066 307.584 
L 80.391405 307.584 
L 80.391405 307.584 
L 77.112066 307.584 
z
" clip-path="url(#p816a077e8a)" style="fill: #1f77b4; opacity: 0.5"/>
   </g>
   <g id="patch_5">
    <path d="M 80.391405 307.584 
L 83.670744 307.584 
L 83.670744 307.584 
L 80.391405 307.584 
z
" clip-path="url(#p816a077e8a)" style="fill: #1f77b4; opacity: 0.5"/>
   </g>
   <g id="patch_6">
    <path d="M 83.670744 307.584 
L 86.950083 307.584 
L 86.950083 307.584 
L 83.670744 307.584 
z
" clip-path="url(#p816a077e8a)" style="fill: #1f77b4; opacity: 0.5"/>
   </g>
   <g id="patch_7">
    <path d="M 86.950083 307.584 
L 90.229421 307.584 
L 90.229421 307.584 
L 86.950083 307.584 
z
" clip-path="url(#p816a077e8a)" style="fill: #1f77b4; opacity: 0.5"/>
   </g>
   <g id="patch_8">
    <path d="M 90.229421 307.584 
L 93.50876 307.584 
L 93.50876 307.584 
L 90.229421 307.584 
z
" clip-path="url(#p816a077e8a)" style="fill: #1f77b4; opacity: 0.5"/>
   </g>
   <g id="patch_9">
    <path d="M 93.50876 307.584 
L 96.788099 307.584 
L 96.788099 307.584 
L 93.50876 307.584 
z
" clip-path="url(#p816a077e8a)" style="fill: #1f77b4; opacity: 0.5"/>
   </g>
   <g id="patch_10">
    <path d="M 96.788099 307.584 
L 100.067438 307.584 
L 100.067438 307.584 
L 96.788099 307.584 
z
" clip-path="url(#p816a077e8a)" style="fill: #1f77b4; opacity: 0.5"/>
   </g>
   <g id="patch_11">
    <path d="M 100.067438 307.584 
L 103.346777 307.584 
L 103.346777 307.584 
L 100.067438 307.584 
z
" clip-path="url(#p816a077e8a)" style="fill: #1f77b4; opacity: 0.5"/>
   </g>
   <g id="patch_12">
    <path d="M 103.346777 307.584 
L 106.626116 307.584 
L 106.626116 307.584 
L 103.346777 307.584 
z
" clip-path="url(#p816a077e8a)" style="fill: #1f77b4; opacity: 0.5"/>
   </g>
   <g id="patch_13">
    <path d="M 106.626116 307.584 
L 109.905455 307.584 
L 109.905455 307.584 
L 106.626116 307.584 
z
" clip-path="url(#p816a077e8a)" style="fill: #1f77b4; opacity: 0.5"/>
   </g>
   <g id="patch_14">
    <path d="M 109.905455 307.584 
L 113.184793 307.584 
L 113.184793 307.584 
L 109.905455 307.584 
z
" clip-path="url(#p816a077e8a)" style="fill: #1f77b4; opacity: 0.5"/>
   </g>
   <g id="patch_15">
    <path d="M 113.184793 307.584 
L 116.464132 307.584 
L 116.464132 307.584 
L 113.184793 307.584 
z
" clip-path="url(#p816a077e8a)" style="fill: #1f77b4; opacity: 0.5"/>
   </g>
   <g id="patch_16">
    <path d="M 116.464132 307.584 
L 119.743471 307.584 
L 119.743471 307.584 
L 116.464132 307.584 
z
" clip-path="url(#p816a077e8a)" style="fill: #1f77b4; opacity: 0.5"/>
   </g>
   <g id="patch_17">
    <path d="M 119.743471 307.584 
L 123.02281 307.584 
L 123.02281 307.584 
L 119.743471 307.584 
z
" clip-path="url(#p816a077e8a)" style="fill: #1f77b4; opacity: 0.5"/>
   </g>
   <g id="patch_18">
    <path d="M 123.02281 307.584 
L 126.302149 307.584 
L 126.302149 307.584 
L 123.02281 307.584 
z
" clip-path="url(#p816a077e8a)" style="fill: #1f77b4; opacity: 0.5"/>
   </g>
   <g id="patch_19">
    <path d="M 126.302149 307.584 
L 129.581488 307.584 
L 129.581488 307.584 
L 126.302149 307.584 
z
" clip-path="url(#p816a077e8a)" style="fill: #1f77b4; opacity: 0.5"/>
   </g>
   <g id="patch_20">
    <path d="M 129.581488 307.584 
L 132.860826 307.584 
L 132.860826 307.584 
L 129.581488 307.584 
z
" clip-path="url(#p816a077e8a)" style="fill: #1f77b4; opacity: 0.5"/>
   </g>
   <g id="patch_21">
    <path d="M 132.860826 307.584 
L 136.140165 307.584 
L 136.140165 307.584 
L 132.860826 307.584 
z
" clip-path="url(#p816a077e8a)" style="fill: #1f77b4; opacity: 0.5"/>
   </g>
   <g id="patch_22">
    <path d="M 136.140165 307.584 
L 139.419504 307.584 
L 139.419504 307.584 
L 136.140165 307.584 
z
" clip-path="url(#p816a077e8a)" style="fill: #1f77b4; opacity: 0.5"/>
   </g>
   <g id="patch_23">
    <path d="M 139.419504 307.584 
L 142.698843 307.584 
L 142.698843 307.584 
L 139.419504 307.584 
z
" clip-path="url(#p816a077e8a)" style="fill: #1f77b4; opacity: 0.5"/>
   </g>
   <g id="patch_24">
    <path d="M 142.698843 307.584 
L 145.978182 307.584 
L 145.978182 307.584 
L 142.698843 307.584 
z
" clip-path="url(#p816a077e8a)" style="fill: #1f77b4; opacity: 0.5"/>
   </g>
   <g id="patch_25">
    <path d="M 145.978182 307.584 
L 149.257521 307.584 
L 149.257521 307.584 
L 145.978182 307.584 
z
" clip-path="url(#p816a077e8a)" style="fill: #1f77b4; opacity: 0.5"/>
   </g>
   <g id="patch_26">
    <path d="M 149.257521 307.584 
L 152.53686 307.584 
L 152.53686 307.584 
L 149.257521 307.584 
z
" clip-path="url(#p816a077e8a)" style="fill: #1f77b4; opacity: 0.5"/>
   </g>
   <g id="patch_27">
    <path d="M 152.53686 307.584 
L 155.816198 307.584 
L 155.816198 307.584 
L 152.53686 307.584 
z
" clip-path="url(#p816a077e8a)" style="fill: #1f77b4; opacity: 0.5"/>
   </g>
   <g id="patch_28">
    <path d="M 155.816198 307.584 
L 159.095537 307.584 
L 159.095537 307.584 
L 155.816198 307.584 
z
" clip-path="url(#p816a077e8a)" style="fill: #1f77b4; opacity: 0.5"/>
   </g>
   <g id="patch_29">
    <path d="M 159.095537 307.584 
L 162.374876 307.584 
L 162.374876 307.584 
L 159.095537 307.584 
z
" clip-path="url(#p816a077e8a)" style="fill: #1f77b4; opacity: 0.5"/>
   </g>
   <g id="patch_30">
    <path d="M 162.374876 307.584 
L 165.654215 307.584 
L 165.654215 307.584 
L 162.374876 307.584 
z
" clip-path="url(#p816a077e8a)" style="fill: #1f77b4; opacity: 0.5"/>
   </g>
   <g id="patch_31">
    <path d="M 165.654215 307.584 
L 168.933554 307.584 
L 168.933554 307.584 
L 165.654215 307.584 
z
" clip-path="url(#p816a077e8a)" style="fill: #1f77b4; opacity: 0.5"/>
   </g>
   <g id="patch_32">
    <path d="M 168.933554 307.584 
L 172.212893 307.584 
L 172.212893 307.584 
L 168.933554 307.584 
z
" clip-path="url(#p816a077e8a)" style="fill: #1f77b4; opacity: 0.5"/>
   </g>
   <g id="patch_33">
    <path d="M 172.212893 307.584 
L 175.492231 307.584 
L 175.492231 307.584 
L 172.212893 307.584 
z
" clip-path="url(#p816a077e8a)" style="fill: #1f77b4; opacity: 0.5"/>
   </g>
   <g id="patch_34">
    <path d="M 175.492231 307.584 
L 178.77157 307.584 
L 178.77157 307.584 
L 175.492231 307.584 
z
" clip-path="url(#p816a077e8a)" style="fill: #1f77b4; opacity: 0.5"/>
   </g>
   <g id="patch_35">
    <path d="M 178.77157 307.584 
L 182.050909 307.584 
L 182.050909 307.584 
L 178.77157 307.584 
z
" clip-path="url(#p816a077e8a)" style="fill: #1f77b4; opacity: 0.5"/>
   </g>
   <g id="patch_36">
    <path d="M 182.050909 307.584 
L 185.330248 307.584 
L 185.330248 307.397647 
L 182.050909 307.397647 
z
" clip-path="url(#p816a077e8a)" style="fill: #1f77b4; opacity: 0.5"/>
   </g>
   <g id="patch_37">
    <path d="M 185.330248 307.584 
L 188.609587 307.584 
L 188.609587 307.490824 
L 185.330248 307.490824 
z
" clip-path="url(#p816a077e8a)" style="fill: #1f77b4; opacity: 0.5"/>
   </g>
   <g id="patch_38">
    <path d="M 188.609587 307.584 
L 191.888926 307.584 
L 191.888926 307.397647 
L 188.609587 307.397647 
z
" clip-path="url(#p816a077e8a)" style="fill: #1f77b4; opacity: 0.5"/>
   </g>
   <g id="patch_39">
    <path d="M 191.888926 307.584 
L 195.168264 307.584 
L 195.168264 307.118118 
L 191.888926 307.118118 
z
" clip-path="url(#p816a077e8a)" style="fill: #1f77b4; opacity: 0.5"/>
   </g>
   <g id="patch_40">
    <path d="M 195.168264 307.584 
L 198.447603 307.584 
L 198.447603 307.211294 
L 195.168264 307.211294 
z
" clip-path="url(#p816a077e8a)" style="fill: #1f77b4; opacity: 0.5"/>
   </g>
   <g id="patch_41">
    <path d="M 198.447603 307.584 
L 201.726942 307.584 
L 201.726942 306.838588 
L 198.447603 306.838588 
z
" clip-path="url(#p816a077e8a)" style="fill: #1f77b4; opacity: 0.5"/>
   </g>
   <g id="patch_42">
    <path d="M 201.726942 307.584 
L 205.006281 307.584 
L 205.006281 307.211294 
L 201.726942 307.211294 
z
" clip-path="url(#p816a077e8a)" style="fill: #1f77b4; opacity: 0.5"/>
   </g>
   <g id="patch_43">
    <path d="M 205.006281 307.584 
L 208.28562 307.584 
L 208.28562 306.838588 
L 205.006281 306.838588 
z
" clip-path="url(#p816a077e8a)" style="fill: #1f77b4; opacity: 0.5"/>
   </g>
   <g id="patch_44">
    <path d="M 208.28562 307.584 
L 211.564959 307.584 
L 211.564959 306.559059 
L 208.28562 306.559059 
z
" clip-path="url(#p816a077e8a)" style="fill: #1f77b4; opacity: 0.5"/>
   </g>
   <g id="patch_45">
    <path d="M 211.564959 307.584 
L 214.844298 307.584 
L 214.844298 305.534118 
L 211.564959 305.534118 
z
" clip-path="url(#p816a077e8a)" style="fill: #1f77b4; opacity: 0.5"/>
   </g>
   <g id="patch_46">
    <path d="M 214.844298 307.584 
L 218.123636 307.584 
L 218.123636 304.881882 
L 214.844298 304.881882 
z
" clip-path="url(#p816a077e8a)" style="fill: #1f77b4; opacity: 0.5"/>
   </g>
   <g id="patch_47">
    <path d="M 218.123636 307.584 
L 221.402975 307.584 
L 221.402975 304.881882 
L 218.123636 304.881882 
z
" clip-path="url(#p816a077e8a)" style="fill: #1f77b4; opacity: 0.5"/>
   </g>
   <g id="patch_48">
    <path d="M 221.402975 307.584 
L 224.682314 307.584 
L 224.682314 303.856941 
L 221.402975 303.856941 
z
" clip-path="url(#p816a077e8a)" style="fill: #1f77b4; opacity: 0.5"/>
   </g>
   <g id="patch_49">
    <path d="M 224.682314 307.584 
L 227.961653 307.584 
L 227.961653 303.297882 
L 224.682314 303.297882 
z
" clip-path="url(#p816a077e8a)" style="fill: #1f77b4; opacity: 0.5"/>
   </g>
   <g id="patch_50">
    <path d="M 227.961653 307.584 
L 231.240992 307.584 
L 231.240992 301.993412 
L 227.961653 301.993412 
z
" clip-path="url(#p816a077e8a)" style="fill: #1f77b4; opacity: 0.5"/>
   </g>
   <g id="patch_51">
    <path d="M 231.240992 307.584 
L 234.520331 307.584 
L 234.520331 300.316235 
L 231.240992 300.316235 
z
" clip-path="url(#p816a077e8a)" style="fill: #1f77b4; opacity: 0.5"/>
   </g>
   <g id="patch_52">
    <path d="M 234.520331 307.584 
L 237.799669 307.584 
L 237.799669 301.341176 
L 234.520331 301.341176 
z
" clip-path="url(#p816a077e8a)" style="fill: #1f77b4; opacity: 0.5"/>
   </g>
   <g id="patch_53">
    <path d="M 237.799669 307.584 
L 241.079008 307.584 
L 241.079008 297.893647 
L 237.799669 297.893647 
z
" clip-path="url(#p816a077e8a)" style="fill: #1f77b4; opacity: 0.5"/>
   </g>
   <g id="patch_54">
    <path d="M 241.079008 307.584 
L 244.358347 307.584 
L 244.358347 296.030118 
L 241.079008 296.030118 
z
" clip-path="url(#p816a077e8a)" style="fill: #1f77b4; opacity: 0.5"/>
   </g>
   <g id="patch_55">
    <path d="M 244.358347 307.584 
L 247.637686 307.584 
L 247.637686 294.539294 
L 244.358347 294.539294 
z
" clip-path="url(#p816a077e8a)" style="fill: #1f77b4; opacity: 0.5"/>
   </g>
   <g id="patch_56">
    <path d="M 247.637686 307.584 
L 250.917025 307.584 
L 250.917025 291.744 
L 247.637686 291.744 
z
" clip-path="url(#p816a077e8a)" style="fill: #1f77b4; opacity: 0.5"/>
   </g>
   <g id="patch_57">
    <path d="M 250.917025 307.584 
L 254.196364 307.584 
L 254.196364 292.303059 
L 250.917025 292.303059 
z
" clip-path="url(#p816a077e8a)" style="fill: #1f77b4; opacity: 0.5"/>
   </g>
   <g id="patch_58">
    <path d="M 254.196364 307.584 
L 257.475702 307.584 
L 257.475702 288.482824 
L 254.196364 288.482824 
z
" clip-path="url(#p816a077e8a)" style="fill: #1f77b4; opacity: 0.5"/>
   </g>
   <g id="patch_59">
    <path d="M 257.475702 307.584 
L 260.755041 307.584 
L 260.755041 288.296471 
L 257.475702 288.296471 
z
" clip-path="url(#p816a077e8a)" style="fill: #1f77b4; opacity: 0.5"/>
   </g>
   <g id="patch_60">
    <path d="M 260.755041 307.584 
L 264.03438 307.584 
L 264.03438 284.289882 
L 260.755041 284.289882 
z
" clip-path="url(#p816a077e8a)" style="fill: #1f77b4; opacity: 0.5"/>
   </g>
   <g id="patch_61">
    <path d="M 264.03438 307.584 
L 267.313719 307.584 
L 267.313719 281.215059 
L 264.03438 281.215059 
z
" clip-path="url(#p816a077e8a)" style="fill: #1f77b4; opacity: 0.5"/>
   </g>
   <g id="patch_62">
    <path d="M 267.313719 307.584 
L 270.593058 307.584 
L 270.593058 277.767529 
L 267.313719 277.767529 
z
" clip-path="url(#p816a077e8a)" style="fill: #1f77b4; opacity: 0.5"/>
   </g>
   <g id="patch_63">
    <path d="M 270.593058 307.584 
L 273.872397 307.584 
L 273.872397 273.760941 
L 270.593058 273.760941 
z
" clip-path="url(#p816a077e8a)" style="fill: #1f77b4; opacity: 0.5"/>
   </g>
   <g id="patch_64">
    <path d="M 273.872397 307.584 
L 277.151736 307.584 
L 277.151736 272.922353 
L 273.872397 272.922353 
z
" clip-path="url(#p816a077e8a)" style="fill: #1f77b4; opacity: 0.5"/>
   </g>
   <g id="patch_65">
    <path d="M 277.151736 307.584 
L 280.431074 307.584 
L 280.431074 263.977412 
L 277.151736 263.977412 
z
" clip-path="url(#p816a077e8a)" style="fill: #1f77b4; opacity: 0.5"/>
   </g>
   <g id="patch_66">
    <path d="M 280.431074 307.584 
L 283.710413 307.584 
L 283.710413 268.449882 
L 280.431074 268.449882 
z
" clip-path="url(#p816a077e8a)" style="fill: #1f77b4; opacity: 0.5"/>
   </g>
   <g id="patch_67">
    <path d="M 283.710413 307.584 
L 286.989752 307.584 
L 286.989752 262.859294 
L 283.710413 262.859294 
z
" clip-path="url(#p816a077e8a)" style="fill: #1f77b4; opacity: 0.5"/>
   </g>
   <g id="patch_68">
    <path d="M 286.989752 307.584 
L 290.269091 307.584 
L 290.269091 260.157176 
L 286.989752 260.157176 
z
" clip-path="url(#p816a077e8a)" style="fill: #1f77b4; opacity: 0.5"/>
   </g>
   <g id="patch_69">
    <path d="M 290.269091 307.584 
L 293.54843 307.584 
L 293.54843 258.014118 
L 290.269091 258.014118 
z
" clip-path="url(#p816a077e8a)" style="fill: #1f77b4; opacity: 0.5"/>
   </g>
   <g id="patch_70">
    <path d="M 293.54843 307.584 
L 296.827769 307.584 
L 296.827769 251.678118 
L 293.54843 251.678118 
z
" clip-path="url(#p816a077e8a)" style="fill: #1f77b4; opacity: 0.5"/>
   </g>
   <g id="patch_71">
    <path d="M 296.827769 307.584 
L 300.107107 307.584 
L 300.107107 249.907765 
L 296.827769 249.907765 
z
" clip-path="url(#p816a077e8a)" style="fill: #1f77b4; opacity: 0.5"/>
   </g>
   <g id="patch_72">
    <path d="M 300.107107 307.584 
L 303.386446 307.584 
L 303.386446 243.851294 
L 300.107107 243.851294 
z
" clip-path="url(#p816a077e8a)" style="fill: #1f77b4; opacity: 0.5"/>
   </g>
   <g id="patch_73">
    <path d="M 303.386446 307.584 
L 306.665785 307.584 
L 306.665785 238.819765 
L 303.386446 238.819765 
z
" clip-path="url(#p816a077e8a)" style="fill: #1f77b4; opacity: 0.5"/>
   </g>
   <g id="patch_74">
    <path d="M 306.665785 307.584 
L 309.945124 307.584 
L 309.945124 229.408941 
L 306.665785 229.408941 
z
" clip-path="url(#p816a077e8a)" style="fill: #1f77b4; opacity: 0.5"/>
   </g>
   <g id="patch_75">
    <path d="M 309.945124 307.584 
L 313.224463 307.584 
L 313.224463 233.415529 
L 309.945124 233.415529 
z
" clip-path="url(#p816a077e8a)" style="fill: #1f77b4; opacity: 0.5"/>
   </g>
   <g id="patch_76">
    <path d="M 313.224463 307.584 
L 316.503802 307.584 
L 316.503802 223.072941 
L 313.224463 223.072941 
z
" clip-path="url(#p816a077e8a)" style="fill: #1f77b4; opacity: 0.5"/>
   </g>
   <g id="patch_77">
    <path d="M 316.503802 307.584 
L 319.78314 307.584 
L 319.78314 222.513882 
L 316.503802 222.513882 
z
" clip-path="url(#p816a077e8a)" style="fill: #1f77b4; opacity: 0.5"/>
   </g>
   <g id="patch_78">
    <path d="M 319.78314 307.584 
L 323.062479 307.584 
L 323.062479 219.904941 
L 319.78314 219.904941 
z
" clip-path="url(#p816a077e8a)" style="fill: #1f77b4; opacity: 0.5"/>
   </g>
   <g id="patch_79">
    <path d="M 323.062479 307.584 
L 326.341818 307.584 
L 326.341818 220.184471 
L 323.062479 220.184471 
z
" clip-path="url(#p816a077e8a)" style="fill: #1f77b4; opacity: 0.5"/>
   </g>
   <g id="patch_80">
    <path d="M 326.341818 307.584 
L 329.621157 307.584 
L 329.621157 212.637176 
L 326.341818 212.637176 
z
" clip-path="url(#p816a077e8a)" style="fill: #1f77b4; opacity: 0.5"/>
   </g>
   <g id="patch_81">
    <path d="M 329.621157 307.584 
L 332.900496 307.584 
L 332.900496 202.853647 
L 329.621157 202.853647 
z
" clip-path="url(#p816a077e8a)" style="fill: #1f77b4; opacity: 0.5"/>
   </g>
   <g id="patch_82">
    <path d="M 332.900496 307.584 
L 336.179835 307.584 
L 336.179835 203.133176 
L 332.900496 203.133176 
z
" clip-path="url(#p816a077e8a)" style="fill: #1f77b4; opacity: 0.5"/>
   </g>
   <g id="patch_83">
    <path d="M 336.179835 307.584 
L 339.459174 307.584 
L 339.459174 201.828706 
L 336.179835 201.828706 
z
" clip-path="url(#p816a077e8a)" style="fill: #1f77b4; opacity: 0.5"/>
   </g>
   <g id="patch_84">
    <path d="M 339.459174 307.584 
L 342.738512 307.584 
L 342.738512 200.058353 
L 339.459174 200.058353 
z
" clip-path="url(#p816a077e8a)" style="fill: #1f77b4; opacity: 0.5"/>
   </g>
   <g id="patch_85">
    <path d="M 342.738512 307.584 
L 346.017851 307.584 
L 346.017851 205.462588 
L 342.738512 205.462588 
z
" clip-path="url(#p816a077e8a)" style="fill: #1f77b4; opacity: 0.5"/>
   </g>
   <g id="patch_86">
    <path d="M 346.017851 307.584 
L 349.29719 307.584 
L 349.29719 198.567529 
L 346.017851 198.567529 
z
" clip-path="url(#p816a077e8a)" style="fill: #1f77b4; opacity: 0.5"/>
   </g>
   <g id="patch_87">
    <path d="M 349.29719 307.584 
L 352.576529 307.584 
L 352.576529 204.717176 
L 349.29719 204.717176 
z
" clip-path="url(#p816a077e8a)" style="fill: #1f77b4; opacity: 0.5"/>
   </g>
   <g id="patch_88">
    <path d="M 352.576529 307.584 
L 355.855868 307.584 
L 355.855868 206.301176 
L 352.576529 206.301176 
z
" clip-path="url(#p816a077e8a)" style="fill: #1f77b4; opacity: 0.5"/>
   </g>
   <g id="patch_89">
    <path d="M 355.855868 307.584 
L 359.135207 307.584 
L 359.135207 216.084706 
L 355.855868 216.084706 
z
" clip-path="url(#p816a077e8a)" style="fill: #1f77b4; opacity: 0.5"/>
   </g>
   <g id="patch_90">
    <path d="M 359.135207 307.584 
L 362.414545 307.584 
L 362.414545 218.973176 
L 359.135207 218.973176 
z
" clip-path="url(#p816a077e8a)" style="fill: #1f77b4; opacity: 0.5"/>
   </g>
   <g id="patch_91">
    <path d="M 362.414545 307.584 
L 365.693884 307.584 
L 365.693884 228.943059 
L 362.414545 228.943059 
z
" clip-path="url(#p816a077e8a)" style="fill: #1f77b4; opacity: 0.5"/>
   </g>
   <g id="patch_92">
    <path d="M 365.693884 307.584 
L 368.973223 307.584 
L 368.973223 244.317176 
L 365.693884 244.317176 
z
" clip-path="url(#p816a077e8a)" style="fill: #1f77b4; opacity: 0.5"/>
   </g>
   <g id="patch_93">
    <path d="M 368.973223 307.584 
L 372.252562 307.584 
L 372.252562 250.187294 
L 368.973223 250.187294 
z
" clip-path="url(#p816a077e8a)" style="fill: #1f77b4; opacity: 0.5"/>
   </g>
   <g id="patch_94">
    <path d="M 372.252562 307.584 
L 375.531901 307.584 
L 375.531901 265.561412 
L 372.252562 265.561412 
z
" clip-path="url(#p816a077e8a)" style="fill: #1f77b4; opacity: 0.5"/>
   </g>
   <g id="patch_95">
    <path d="M 375.531901 307.584 
L 378.81124 307.584 
L 378.81124 279.072 
L 375.531901 279.072 
z
" clip-path="url(#p816a077e8a)" style="fill: #1f77b4; opacity: 0.5"/>
   </g>
   <g id="patch_96">
    <path d="M 378.81124 307.584 
L 382.090579 307.584 
L 382.090579 288.576 
L 378.81124 288.576 
z
" clip-path="url(#p816a077e8a)" style="fill: #1f77b4; opacity: 0.5"/>
   </g>
   <g id="patch_97">
    <path d="M 382.090579 307.584 
L 385.369917 307.584 
L 385.369917 296.682353 
L 382.090579 296.682353 
z
" clip-path="url(#p816a077e8a)" style="fill: #1f77b4; opacity: 0.5"/>
   </g>
   <g id="patch_98">
    <path d="M 385.369917 307.584 
L 388.649256 307.584 
L 388.649256 302.552471 
L 385.369917 302.552471 
z
" clip-path="url(#p816a077e8a)" style="fill: #1f77b4; opacity: 0.5"/>
   </g>
   <g id="patch_99">
    <path d="M 388.649256 307.584 
L 391.928595 307.584 
L 391.928595 303.484235 
L 388.649256 303.484235 
z
" clip-path="url(#p816a077e8a)" style="fill: #1f77b4; opacity: 0.5"/>
   </g>
   <g id="patch_100">
    <path d="M 391.928595 307.584 
L 395.207934 307.584 
L 395.207934 306.186353 
L 391.928595 306.186353 
z
" clip-path="url(#p816a077e8a)" style="fill: #1f77b4; opacity: 0.5"/>
   </g>
   <g id="patch_101">
    <path d="M 395.207934 307.584 
L 398.487273 307.584 
L 398.487273 303.111529 
L 395.207934 303.111529 
z
" clip-path="url(#p816a077e8a)" style="fill: #1f77b4; opacity: 0.5"/>
   </g>
   <g id="patch_102">
    <path d="M 73.832727 307.584 
L 77.112066 307.584 
L 77.112066 307.584 
L 73.832727 307.584 
z
" clip-path="url(#p816a077e8a)" style="fill: #d62728; opacity: 0.5"/>
   </g>
   <g id="patch_103">
    <path d="M 77.112066 307.584 
L 80.391405 307.584 
L 80.391405 307.584 
L 77.112066 307.584 
z
" clip-path="url(#p816a077e8a)" style="fill: #d62728; opacity: 0.5"/>
   </g>
   <g id="patch_104">
    <path d="M 80.391405 307.584 
L 83.670744 307.584 
L 83.670744 307.584 
L 80.391405 307.584 
z
" clip-path="url(#p816a077e8a)" style="fill: #d62728; opacity: 0.5"/>
   </g>
   <g id="patch_105">
    <path d="M 83.670744 307.584 
L 86.950083 307.584 
L 86.950083 307.584 
L 83.670744 307.584 
z
" clip-path="url(#p816a077e8a)" style="fill: #d62728; opacity: 0.5"/>
   </g>
   <g id="patch_106">
    <path d="M 86.950083 307.584 
L 90.229421 307.584 
L 90.229421 307.584 
L 86.950083 307.584 
z
" clip-path="url(#p816a077e8a)" style="fill: #d62728; opacity: 0.5"/>
   </g>
   <g id="patch_107">
    <path d="M 90.229421 307.584 
L 93.50876 307.584 
L 93.50876 307.584 
L 90.229421 307.584 
z
" clip-path="url(#p816a077e8a)" style="fill: #d62728; opacity: 0.5"/>
   </g>
   <g id="patch_108">
    <path d="M 93.50876 307.584 
L 96.788099 307.584 
L 96.788099 307.584 
L 93.50876 307.584 
z
" clip-path="url(#p816a077e8a)" style="fill: #d62728; opacity: 0.5"/>
   </g>
   <g id="patch_109">
    <path d="M 96.788099 307.584 
L 100.067438 307.584 
L 100.067438 307.584 
L 96.788099 307.584 
z
" clip-path="url(#p816a077e8a)" style="fill: #d62728; opacity: 0.5"/>
   </g>
   <g id="patch_110">
    <path d="M 100.067438 307.584 
L 103.346777 307.584 
L 103.346777 307.584 
L 100.067438 307.584 
z
" clip-path="url(#p816a077e8a)" style="fill: #d62728; opacity: 0.5"/>
   </g>
   <g id="patch_111">
    <path d="M 103.346777 307.584 
L 106.626116 307.584 
L 106.626116 307.584 
L 103.346777 307.584 
z
" clip-path="url(#p816a077e8a)" style="fill: #d62728; opacity: 0.5"/>
   </g>
   <g id="patch_112">
    <path d="M 106.626116 307.584 
L 109.905455 307.584 
L 109.905455 307.584 
L 106.626116 307.584 
z
" clip-path="url(#p816a077e8a)" style="fill: #d62728; opacity: 0.5"/>
   </g>
   <g id="patch_113">
    <path d="M 109.905455 307.584 
L 113.184793 307.584 
L 113.184793 307.584 
L 109.905455 307.584 
z
" clip-path="url(#p816a077e8a)" style="fill: #d62728; opacity: 0.5"/>
   </g>
   <g id="patch_114">
    <path d="M 113.184793 307.584 
L 116.464132 307.584 
L 116.464132 307.584 
L 113.184793 307.584 
z
" clip-path="url(#p816a077e8a)" style="fill: #d62728; opacity: 0.5"/>
   </g>
   <g id="patch_115">
    <path d="M 116.464132 307.584 
L 119.743471 307.584 
L 119.743471 307.584 
L 116.464132 307.584 
z
" clip-path="url(#p816a077e8a)" style="fill: #d62728; opacity: 0.5"/>
   </g>
   <g id="patch_116">
    <path d="M 119.743471 307.584 
L 123.02281 307.584 
L 123.02281 307.584 
L 119.743471 307.584 
z
" clip-path="url(#p816a077e8a)" style="fill: #d62728; opacity: 0.5"/>
   </g>
   <g id="patch_117">
    <path d="M 123.02281 307.584 
L 126.302149 307.584 
L 126.302149 307.584 
L 123.02281 307.584 
z
" clip-path="url(#p816a077e8a)" style="fill: #d62728; opacity: 0.5"/>
   </g>
   <g id="patch_118">
    <path d="M 126.302149 307.584 
L 129.581488 307.584 
L 129.581488 307.584 
L 126.302149 307.584 
z
" clip-path="url(#p816a077e8a)" style="fill: #d62728; opacity: 0.5"/>
   </g>
   <g id="patch_119">
    <path d="M 129.581488 307.584 
L 132.860826 307.584 
L 132.860826 307.584 
L 129.581488 307.584 
z
" clip-path="url(#p816a077e8a)" style="fill: #d62728; opacity: 0.5"/>
   </g>
   <g id="patch_120">
    <path d="M 132.860826 307.584 
L 136.140165 307.584 
L 136.140165 307.584 
L 132.860826 307.584 
z
" clip-path="url(#p816a077e8a)" style="fill: #d62728; opacity: 0.5"/>
   </g>
   <g id="patch_121">
    <path d="M 136.140165 307.584 
L 139.419504 307.584 
L 139.419504 307.584 
L 136.140165 307.584 
z
" clip-path="url(#p816a077e8a)" style="fill: #d62728; opacity: 0.5"/>
   </g>
   <g id="patch_122">
    <path d="M 139.419504 307.584 
L 142.698843 307.584 
L 142.698843 307.584 
L 139.419504 307.584 
z
" clip-path="url(#p816a077e8a)" style="fill: #d62728; opacity: 0.5"/>
   </g>
   <g id="patch_123">
    <path d="M 142.698843 307.584 
L 145.978182 307.584 
L 145.978182 307.584 
L 142.698843 307.584 
z
" clip-path="url(#p816a077e8a)" style="fill: #d62728; opacity: 0.5"/>
   </g>
   <g id="patch_124">
    <path d="M 145.978182 307.584 
L 149.257521 307.584 
L 149.257521 307.584 
L 145.978182 307.584 
z
" clip-path="url(#p816a077e8a)" style="fill: #d62728; opacity: 0.5"/>
   </g>
   <g id="patch_125">
    <path d="M 149.257521 307.584 
L 152.53686 307.584 
L 152.53686 307.584 
L 149.257521 307.584 
z
" clip-path="url(#p816a077e8a)" style="fill: #d62728; opacity: 0.5"/>
   </g>
   <g id="patch_126">
    <path d="M 152.53686 307.584 
L 155.816198 307.584 
L 155.816198 307.584 
L 152.53686 307.584 
z
" clip-path="url(#p816a077e8a)" style="fill: #d62728; opacity: 0.5"/>
   </g>
   <g id="patch_127">
    <path d="M 155.816198 307.584 
L 159.095537 307.584 
L 159.095537 307.584 
L 155.816198 307.584 
z
" clip-path="url(#p816a077e8a)" style="fill: #d62728; opacity: 0.5"/>
   </g>
   <g id="patch_128">
    <path d="M 159.095537 307.584 
L 162.374876 307.584 
L 162.374876 307.584 
L 159.095537 307.584 
z
" clip-path="url(#p816a077e8a)" style="fill: #d62728; opacity: 0.5"/>
   </g>
   <g id="patch_129">
    <path d="M 162.374876 307.584 
L 165.654215 307.584 
L 165.654215 307.584 
L 162.374876 307.584 
z
" clip-path="url(#p816a077e8a)" style="fill: #d62728; opacity: 0.5"/>
   </g>
   <g id="patch_130">
    <path d="M 165.654215 307.584 
L 168.933554 307.584 
L 168.933554 307.584 
L 165.654215 307.584 
z
" clip-path="url(#p816a077e8a)" style="fill: #d62728; opacity: 0.5"/>
   </g>
   <g id="patch_131">
    <path d="M 168.933554 307.584 
L 172.212893 307.584 
L 172.212893 307.584 
L 168.933554 307.584 
z
" clip-path="url(#p816a077e8a)" style="fill: #d62728; opacity: 0.5"/>
   </g>
   <g id="patch_132">
    <path d="M 172.212893 307.584 
L 175.492231 307.584 
L 175.492231 307.584 
L 172.212893 307.584 
z
" clip-path="url(#p816a077e8a)" style="fill: #d62728; opacity: 0.5"/>
   </g>
   <g id="patch_133">
    <path d="M 175.492231 307.584 
L 178.77157 307.584 
L 178.77157 307.584 
L 175.492231 307.584 
z
" clip-path="url(#p816a077e8a)" style="fill: #d62728; opacity: 0.5"/>
   </g>
   <g id="patch_134">
    <path d="M 178.77157 307.584 
L 182.050909 307.584 
L 182.050909 307.584 
L 178.77157 307.584 
z
" clip-path="url(#p816a077e8a)" style="fill: #d62728; opacity: 0.5"/>
   </g>
   <g id="patch_135">
    <path d="M 182.050909 307.584 
L 185.330248 307.584 
L 185.330248 307.584 
L 182.050909 307.584 
z
" clip-path="url(#p816a077e8a)" style="fill: #d62728; opacity: 0.5"/>
   </g>
   <g id="patch_136">
    <path d="M 185.330248 307.584 
L 188.609587 307.584 
L 188.609587 307.584 
L 185.330248 307.584 
z
" clip-path="url(#p816a077e8a)" style="fill: #d62728; opacity: 0.5"/>
   </g>
   <g id="patch_137">
    <path d="M 188.609587 307.584 
L 191.888926 307.584 
L 191.888926 307.584 
L 188.609587 307.584 
z
" clip-path="url(#p816a077e8a)" style="fill: #d62728; opacity: 0.5"/>
   </g>
   <g id="patch_138">
    <path d="M 191.888926 307.584 
L 195.168264 307.584 
L 195.168264 307.584 
L 191.888926 307.584 
z
" clip-path="url(#p816a077e8a)" style="fill: #d62728; opacity: 0.5"/>
   </g>
   <g id="patch_139">
    <path d="M 195.168264 307.584 
L 198.447603 307.584 
L 198.447603 307.584 
L 195.168264 307.584 
z
" clip-path="url(#p816a077e8a)" style="fill: #d62728; opacity: 0.5"/>
   </g>
   <g id="patch_140">
    <path d="M 198.447603 307.584 
L 201.726942 307.584 
L 201.726942 307.584 
L 198.447603 307.584 
z
" clip-path="url(#p816a077e8a)" style="fill: #d62728; opacity: 0.5"/>
   </g>
   <g id="patch_141">
    <path d="M 201.726942 307.584 
L 205.006281 307.584 
L 205.006281 307.584 
L 201.726942 307.584 
z
" clip-path="url(#p816a077e8a)" style="fill: #d62728; opacity: 0.5"/>
   </g>
   <g id="patch_142">
    <path d="M 205.006281 307.584 
L 208.28562 307.584 
L 208.28562 307.584 
L 205.006281 307.584 
z
" clip-path="url(#p816a077e8a)" style="fill: #d62728; opacity: 0.5"/>
   </g>
   <g id="patch_143">
    <path d="M 208.28562 307.584 
L 211.564959 307.584 
L 211.564959 307.584 
L 208.28562 307.584 
z
" clip-path="url(#p816a077e8a)" style="fill: #d62728; opacity: 0.5"/>
   </g>
   <g id="patch_144">
    <path d="M 211.564959 307.584 
L 214.844298 307.584 
L 214.844298 307.584 
L 211.564959 307.584 
z
" clip-path="url(#p816a077e8a)" style="fill: #d62728; opacity: 0.5"/>
   </g>
   <g id="patch_145">
    <path d="M 214.844298 307.584 
L 218.123636 307.584 
L 218.123636 307.584 
L 214.844298 307.584 
z
" clip-path="url(#p816a077e8a)" style="fill: #d62728; opacity: 0.5"/>
   </g>
   <g id="patch_146">
    <path d="M 218.123636 307.584 
L 221.402975 307.584 
L 221.402975 307.584 
L 218.123636 307.584 
z
" clip-path="url(#p816a077e8a)" style="fill: #d62728; opacity: 0.5"/>
   </g>
   <g id="patch_147">
    <path d="M 221.402975 307.584 
L 224.682314 307.584 
L 224.682314 307.584 
L 221.402975 307.584 
z
" clip-path="url(#p816a077e8a)" style="fill: #d62728; opacity: 0.5"/>
   </g>
   <g id="patch_148">
    <path d="M 224.682314 307.584 
L 227.961653 307.584 
L 227.961653 307.584 
L 224.682314 307.584 
z
" clip-path="url(#p816a077e8a)" style="fill: #d62728; opacity: 0.5"/>
   </g>
   <g id="patch_149">
    <path d="M 227.961653 307.584 
L 231.240992 307.584 
L 231.240992 307.584 
L 227.961653 307.584 
z
" clip-path="url(#p816a077e8a)" style="fill: #d62728; opacity: 0.5"/>
   </g>
   <g id="patch_150">
    <path d="M 231.240992 307.584 
L 234.520331 307.584 
L 234.520331 307.584 
L 231.240992 307.584 
z
" clip-path="url(#p816a077e8a)" style="fill: #d62728; opacity: 0.5"/>
   </g>
   <g id="patch_151">
    <path d="M 234.520331 307.584 
L 237.799669 307.584 
L 237.799669 307.584 
L 234.520331 307.584 
z
" clip-path="url(#p816a077e8a)" style="fill: #d62728; opacity: 0.5"/>
   </g>
   <g id="patch_152">
    <path d="M 237.799669 307.584 
L 241.079008 307.584 
L 241.079008 307.584 
L 237.799669 307.584 
z
" clip-path="url(#p816a077e8a)" style="fill: #d62728; opacity: 0.5"/>
   </g>
   <g id="patch_153">
    <path d="M 241.079008 307.584 
L 244.358347 307.584 
L 244.358347 307.584 
L 241.079008 307.584 
z
" clip-path="url(#p816a077e8a)" style="fill: #d62728; opacity: 0.5"/>
   </g>
   <g id="patch_154">
    <path d="M 244.358347 307.584 
L 247.637686 307.584 
L 247.637686 307.584 
L 244.358347 307.584 
z
" clip-path="url(#p816a077e8a)" style="fill: #d62728; opacity: 0.5"/>
   </g>
   <g id="patch_155">
    <path d="M 247.637686 307.584 
L 250.917025 307.584 
L 250.917025 307.584 
L 247.637686 307.584 
z
" clip-path="url(#p816a077e8a)" style="fill: #d62728; opacity: 0.5"/>
   </g>
   <g id="patch_156">
    <path d="M 250.917025 307.584 
L 254.196364 307.584 
L 254.196364 307.584 
L 250.917025 307.584 
z
" clip-path="url(#p816a077e8a)" style="fill: #d62728; opacity: 0.5"/>
   </g>
   <g id="patch_157">
    <path d="M 254.196364 307.584 
L 257.475702 307.584 
L 257.475702 307.584 
L 254.196364 307.584 
z
" clip-path="url(#p816a077e8a)" style="fill: #d62728; opacity: 0.5"/>
   </g>
   <g id="patch_158">
    <path d="M 257.475702 307.584 
L 260.755041 307.584 
L 260.755041 307.584 
L 257.475702 307.584 
z
" clip-path="url(#p816a077e8a)" style="fill: #d62728; opacity: 0.5"/>
   </g>
   <g id="patch_159">
    <path d="M 260.755041 307.584 
L 264.03438 307.584 
L 264.03438 307.584 
L 260.755041 307.584 
z
" clip-path="url(#p816a077e8a)" style="fill: #d62728; opacity: 0.5"/>
   </g>
   <g id="patch_160">
    <path d="M 264.03438 307.584 
L 267.313719 307.584 
L 267.313719 307.584 
L 264.03438 307.584 
z
" clip-path="url(#p816a077e8a)" style="fill: #d62728; opacity: 0.5"/>
   </g>
   <g id="patch_161">
    <path d="M 267.313719 307.584 
L 270.593058 307.584 
L 270.593058 307.584 
L 267.313719 307.584 
z
" clip-path="url(#p816a077e8a)" style="fill: #d62728; opacity: 0.5"/>
   </g>
   <g id="patch_162">
    <path d="M 270.593058 307.584 
L 273.872397 307.584 
L 273.872397 307.584 
L 270.593058 307.584 
z
" clip-path="url(#p816a077e8a)" style="fill: #d62728; opacity: 0.5"/>
   </g>
   <g id="patch_163">
    <path d="M 273.872397 307.584 
L 277.151736 307.584 
L 277.151736 307.584 
L 273.872397 307.584 
z
" clip-path="url(#p816a077e8a)" style="fill: #d62728; opacity: 0.5"/>
   </g>
   <g id="patch_164">
    <path d="M 277.151736 307.584 
L 280.431074 307.584 
L 280.431074 307.584 
L 277.151736 307.584 
z
" clip-path="url(#p816a077e8a)" style="fill: #d62728; opacity: 0.5"/>
   </g>
   <g id="patch_165">
    <path d="M 280.431074 307.584 
L 283.710413 307.584 
L 283.710413 307.584 
L 280.431074 307.584 
z
" clip-path="url(#p816a077e8a)" style="fill: #d62728; opacity: 0.5"/>
   </g>
   <g id="patch_166">
    <path d="M 283.710413 307.584 
L 286.989752 307.584 
L 286.989752 307.490824 
L 283.710413 307.490824 
z
" clip-path="url(#p816a077e8a)" style="fill: #d62728; opacity: 0.5"/>
   </g>
   <g id="patch_167">
    <path d="M 286.989752 307.584 
L 290.269091 307.584 
L 290.269091 307.118118 
L 286.989752 307.118118 
z
" clip-path="url(#p816a077e8a)" style="fill: #d62728; opacity: 0.5"/>
   </g>
   <g id="patch_168">
    <path d="M 290.269091 307.584 
L 293.54843 307.584 
L 293.54843 307.211294 
L 290.269091 307.211294 
z
" clip-path="url(#p816a077e8a)" style="fill: #d62728; opacity: 0.5"/>
   </g>
   <g id="patch_169">
    <path d="M 293.54843 307.584 
L 296.827769 307.584 
L 296.827769 307.118118 
L 293.54843 307.118118 
z
" clip-path="url(#p816a077e8a)" style="fill: #d62728; opacity: 0.5"/>
   </g>
   <g id="patch_170">
    <path d="M 296.827769 307.584 
L 300.107107 307.584 
L 300.107107 306.372706 
L 296.827769 306.372706 
z
" clip-path="url(#p816a077e8a)" style="fill: #d62728; opacity: 0.5"/>
   </g>
   <g id="patch_171">
    <path d="M 300.107107 307.584 
L 303.386446 307.584 
L 303.386446 306.186353 
L 300.107107 306.186353 
z
" clip-path="url(#p816a077e8a)" style="fill: #d62728; opacity: 0.5"/>
   </g>
   <g id="patch_172">
    <path d="M 303.386446 307.584 
L 306.665785 307.584 
L 306.665785 305.813647 
L 303.386446 305.813647 
z
" clip-path="url(#p816a077e8a)" style="fill: #d62728; opacity: 0.5"/>
   </g>
   <g id="patch_173">
    <path d="M 306.665785 307.584 
L 309.945124 307.584 
L 309.945124 304.695529 
L 306.665785 304.695529 
z
" clip-path="url(#p816a077e8a)" style="fill: #d62728; opacity: 0.5"/>
   </g>
   <g id="patch_174">
    <path d="M 309.945124 307.584 
L 313.224463 307.584 
L 313.224463 302.925176 
L 309.945124 302.925176 
z
" clip-path="url(#p816a077e8a)" style="fill: #d62728; opacity: 0.5"/>
   </g>
   <g id="patch_175">
    <path d="M 313.224463 307.584 
L 316.503802 307.584 
L 316.503802 302.179765 
L 313.224463 302.179765 
z
" clip-path="url(#p816a077e8a)" style="fill: #d62728; opacity: 0.5"/>
   </g>
   <g id="patch_176">
    <path d="M 316.503802 307.584 
L 319.78314 307.584 
L 319.78314 300.316235 
L 316.503802 300.316235 
z
" clip-path="url(#p816a077e8a)" style="fill: #d62728; opacity: 0.5"/>
   </g>
   <g id="patch_177">
    <path d="M 319.78314 307.584 
L 323.062479 307.584 
L 323.062479 297.614118 
L 319.78314 297.614118 
z
" clip-path="url(#p816a077e8a)" style="fill: #d62728; opacity: 0.5"/>
   </g>
   <g id="patch_178">
    <path d="M 323.062479 307.584 
L 326.341818 307.584 
L 326.341818 293.700706 
L 323.062479 293.700706 
z
" clip-path="url(#p816a077e8a)" style="fill: #d62728; opacity: 0.5"/>
   </g>
   <g id="patch_179">
    <path d="M 326.341818 307.584 
L 329.621157 307.584 
L 329.621157 289.880471 
L 326.341818 289.880471 
z
" clip-path="url(#p816a077e8a)" style="fill: #d62728; opacity: 0.5"/>
   </g>
   <g id="patch_180">
    <path d="M 329.621157 307.584 
L 332.900496 307.584 
L 332.900496 284.383059 
L 329.621157 284.383059 
z
" clip-path="url(#p816a077e8a)" style="fill: #d62728; opacity: 0.5"/>
   </g>
   <g id="patch_181">
    <path d="M 332.900496 307.584 
L 336.179835 307.584 
L 336.179835 273.947294 
L 332.900496 273.947294 
z
" clip-path="url(#p816a077e8a)" style="fill: #d62728; opacity: 0.5"/>
   </g>
   <g id="patch_182">
    <path d="M 336.179835 307.584 
L 339.459174 307.584 
L 339.459174 261.834353 
L 336.179835 261.834353 
z
" clip-path="url(#p816a077e8a)" style="fill: #d62728; opacity: 0.5"/>
   </g>
   <g id="patch_183">
    <path d="M 339.459174 307.584 
L 342.738512 307.584 
L 342.738512 245.062588 
L 339.459174 245.062588 
z
" clip-path="url(#p816a077e8a)" style="fill: #d62728; opacity: 0.5"/>
   </g>
   <g id="patch_184">
    <path d="M 342.738512 307.584 
L 346.017851 307.584 
L 346.017851 235.465412 
L 342.738512 235.465412 
z
" clip-path="url(#p816a077e8a)" style="fill: #d62728; opacity: 0.5"/>
   </g>
   <g id="patch_185">
    <path d="M 346.017851 307.584 
L 349.29719 307.584 
L 349.29719 206.021647 
L 346.017851 206.021647 
z
" clip-path="url(#p816a077e8a)" style="fill: #d62728; opacity: 0.5"/>
   </g>
   <g id="patch_186">
    <path d="M 349.29719 307.584 
L 352.576529 307.584 
L 352.576529 189.622588 
L 349.29719 189.622588 
z
" clip-path="url(#p816a077e8a)" style="fill: #d62728; opacity: 0.5"/>
   </g>
   <g id="patch_187">
    <path d="M 352.576529 307.584 
L 355.855868 307.584 
L 355.855868 158.688 
L 352.576529 158.688 
z
" clip-path="url(#p816a077e8a)" style="fill: #d62728; opacity: 0.5"/>
   </g>
   <g id="patch_188">
    <path d="M 355.855868 307.584 
L 359.135207 307.584 
L 359.135207 128.685176 
L 355.855868 128.685176 
z
" clip-path="url(#p816a077e8a)" style="fill: #d62728; opacity: 0.5"/>
   </g>
   <g id="patch_189">
    <path d="M 359.135207 307.584 
L 362.414545 307.584 
L 362.414545 97.936941 
L 359.135207 97.936941 
z
" clip-path="url(#p816a077e8a)" style="fill: #d62728; opacity: 0.5"/>
   </g>
   <g id="patch_190">
    <path d="M 362.414545 307.584 
L 365.693884 307.584 
L 365.693884 66.256941 
L 362.414545 66.256941 
z
" clip-path="url(#p816a077e8a)" style="fill: #d62728; opacity: 0.5"/>
   </g>
   <g id="patch_191">
    <path d="M 365.693884 307.584 
L 368.973223 307.584 
L 368.973223 55.541647 
L 365.693884 55.541647 
z
" clip-path="url(#p816a077e8a)" style="fill: #d62728; opacity: 0.5"/>
   </g>
   <g id="patch_192">
    <path d="M 368.973223 307.584 
L 372.252562 307.584 
L 372.252562 54.144 
L 368.973223 54.144 
z
" clip-path="url(#p816a077e8a)" style="fill: #d62728; opacity: 0.5"/>
   </g>
   <g id="patch_193">
    <path d="M 372.252562 307.584 
L 375.531901 307.584 
L 375.531901 58.057412 
L 372.252562 58.057412 
z
" clip-path="url(#p816a077e8a)" style="fill: #d62728; opacity: 0.5"/>
   </g>
   <g id="patch_194">
    <path d="M 375.531901 307.584 
L 378.81124 307.584 
L 378.81124 75.667765 
L 375.531901 75.667765 
z
" clip-path="url(#p816a077e8a)" style="fill: #d62728; opacity: 0.5"/>
   </g>
   <g id="patch_195">
    <path d="M 378.81124 307.584 
L 382.090579 307.584 
L 382.090579 121.696941 
L 378.81124 121.696941 
z
" clip-path="url(#p816a077e8a)" style="fill: #d62728; opacity: 0.5"/>
   </g>
   <g id="patch_196">
    <path d="M 382.090579 307.584 
L 385.369917 307.584 
L 385.369917 168.844235 
L 382.090579 168.844235 
z
" clip-path="url(#p816a077e8a)" style="fill: #d62728; opacity: 0.5"/>
   </g>
   <g id="patch_197">
    <path d="M 385.369917 307.584 
L 388.649256 307.584 
L 388.649256 217.296 
L 385.369917 217.296 
z
" clip-path="url(#p816a077e8a)" style="fill: #d62728; opacity: 0.5"/>
   </g>
   <g id="patch_198">
    <path d="M 388.649256 307.584 
L 391.928595 307.584 
L 391.928595 260.064 
L 388.649256 260.064 
z
" clip-path="url(#p816a077e8a)" style="fill: #d62728; opacity: 0.5"/>
   </g>
   <g id="patch_199">
    <path d="M 391.928595 307.584 
L 395.207934 307.584 
L 395.207934 281.028706 
L 391.928595 281.028706 
z
" clip-path="url(#p816a077e8a)" style="fill: #d62728; opacity: 0.5"/>
   </g>
   <g id="patch_200">
    <path d="M 395.207934 307.584 
L 398.487273 307.584 
L 398.487273 280.190118 
L 395.207934 280.190118 
z
" clip-path="url(#p816a077e8a)" style="fill: #d62728; opacity: 0.5"/>
   </g>
   <g id="patch_201">
    <path d="M 73.832727 307.584 
L 77.112066 307.584 
L 77.112066 307.584 
L 73.832727 307.584 
z
" clip-path="url(#p816a077e8a)" style="fill: #ff7f0e; opacity: 0.5"/>
   </g>
   <g id="patch_202">
    <path d="M 77.112066 307.584 
L 80.391405 307.584 
L 80.391405 307.584 
L 77.112066 307.584 
z
" clip-path="url(#p816a077e8a)" style="fill: #ff7f0e; opacity: 0.5"/>
   </g>
   <g id="patch_203">
    <path d="M 80.391405 307.584 
L 83.670744 307.584 
L 83.670744 307.584 
L 80.391405 307.584 
z
" clip-path="url(#p816a077e8a)" style="fill: #ff7f0e; opacity: 0.5"/>
   </g>
   <g id="patch_204">
    <path d="M 83.670744 307.584 
L 86.950083 307.584 
L 86.950083 307.584 
L 83.670744 307.584 
z
" clip-path="url(#p816a077e8a)" style="fill: #ff7f0e; opacity: 0.5"/>
   </g>
   <g id="patch_205">
    <path d="M 86.950083 307.584 
L 90.229421 307.584 
L 90.229421 307.584 
L 86.950083 307.584 
z
" clip-path="url(#p816a077e8a)" style="fill: #ff7f0e; opacity: 0.5"/>
   </g>
   <g id="patch_206">
    <path d="M 90.229421 307.584 
L 93.50876 307.584 
L 93.50876 307.584 
L 90.229421 307.584 
z
" clip-path="url(#p816a077e8a)" style="fill: #ff7f0e; opacity: 0.5"/>
   </g>
   <g id="patch_207">
    <path d="M 93.50876 307.584 
L 96.788099 307.584 
L 96.788099 307.584 
L 93.50876 307.584 
z
" clip-path="url(#p816a077e8a)" style="fill: #ff7f0e; opacity: 0.5"/>
   </g>
   <g id="patch_208">
    <path d="M 96.788099 307.584 
L 100.067438 307.584 
L 100.067438 307.584 
L 96.788099 307.584 
z
" clip-path="url(#p816a077e8a)" style="fill: #ff7f0e; opacity: 0.5"/>
   </g>
   <g id="patch_209">
    <path d="M 100.067438 307.584 
L 103.346777 307.584 
L 103.346777 307.584 
L 100.067438 307.584 
z
" clip-path="url(#p816a077e8a)" style="fill: #ff7f0e; opacity: 0.5"/>
   </g>
   <g id="patch_210">
    <path d="M 103.346777 307.584 
L 106.626116 307.584 
L 106.626116 307.584 
L 103.346777 307.584 
z
" clip-path="url(#p816a077e8a)" style="fill: #ff7f0e; opacity: 0.5"/>
   </g>
   <g id="patch_211">
    <path d="M 106.626116 307.584 
L 109.905455 307.584 
L 109.905455 307.584 
L 106.626116 307.584 
z
" clip-path="url(#p816a077e8a)" style="fill: #ff7f0e; opacity: 0.5"/>
   </g>
   <g id="patch_212">
    <path d="M 109.905455 307.584 
L 113.184793 307.584 
L 113.184793 307.584 
L 109.905455 307.584 
z
" clip-path="url(#p816a077e8a)" style="fill: #ff7f0e; opacity: 0.5"/>
   </g>
   <g id="patch_213">
    <path d="M 113.184793 307.584 
L 116.464132 307.584 
L 116.464132 307.584 
L 113.184793 307.584 
z
" clip-path="url(#p816a077e8a)" style="fill: #ff7f0e; opacity: 0.5"/>
   </g>
   <g id="patch_214">
    <path d="M 116.464132 307.584 
L 119.743471 307.584 
L 119.743471 307.584 
L 116.464132 307.584 
z
" clip-path="url(#p816a077e8a)" style="fill: #ff7f0e; opacity: 0.5"/>
   </g>
   <g id="patch_215">
    <path d="M 119.743471 307.584 
L 123.02281 307.584 
L 123.02281 307.584 
L 119.743471 307.584 
z
" clip-path="url(#p816a077e8a)" style="fill: #ff7f0e; opacity: 0.5"/>
   </g>
   <g id="patch_216">
    <path d="M 123.02281 307.584 
L 126.302149 307.584 
L 126.302149 307.584 
L 123.02281 307.584 
z
" clip-path="url(#p816a077e8a)" style="fill: #ff7f0e; opacity: 0.5"/>
   </g>
   <g id="patch_217">
    <path d="M 126.302149 307.584 
L 129.581488 307.584 
L 129.581488 307.584 
L 126.302149 307.584 
z
" clip-path="url(#p816a077e8a)" style="fill: #ff7f0e; opacity: 0.5"/>
   </g>
   <g id="patch_218">
    <path d="M 129.581488 307.584 
L 132.860826 307.584 
L 132.860826 307.584 
L 129.581488 307.584 
z
" clip-path="url(#p816a077e8a)" style="fill: #ff7f0e; opacity: 0.5"/>
   </g>
   <g id="patch_219">
    <path d="M 132.860826 307.584 
L 136.140165 307.584 
L 136.140165 307.584 
L 132.860826 307.584 
z
" clip-path="url(#p816a077e8a)" style="fill: #ff7f0e; opacity: 0.5"/>
   </g>
   <g id="patch_220">
    <path d="M 136.140165 307.584 
L 139.419504 307.584 
L 139.419504 307.584 
L 136.140165 307.584 
z
" clip-path="url(#p816a077e8a)" style="fill: #ff7f0e; opacity: 0.5"/>
   </g>
   <g id="patch_221">
    <path d="M 139.419504 307.584 
L 142.698843 307.584 
L 142.698843 307.584 
L 139.419504 307.584 
z
" clip-path="url(#p816a077e8a)" style="fill: #ff7f0e; opacity: 0.5"/>
   </g>
   <g id="patch_222">
    <path d="M 142.698843 307.584 
L 145.978182 307.584 
L 145.978182 307.584 
L 142.698843 307.584 
z
" clip-path="url(#p816a077e8a)" style="fill: #ff7f0e; opacity: 0.5"/>
   </g>
   <g id="patch_223">
    <path d="M 145.978182 307.584 
L 149.257521 307.584 
L 149.257521 307.584 
L 145.978182 307.584 
z
" clip-path="url(#p816a077e8a)" style="fill: #ff7f0e; opacity: 0.5"/>
   </g>
   <g id="patch_224">
    <path d="M 149.257521 307.584 
L 152.53686 307.584 
L 152.53686 307.584 
L 149.257521 307.584 
z
" clip-path="url(#p816a077e8a)" style="fill: #ff7f0e; opacity: 0.5"/>
   </g>
   <g id="patch_225">
    <path d="M 152.53686 307.584 
L 155.816198 307.584 
L 155.816198 307.584 
L 152.53686 307.584 
z
" clip-path="url(#p816a077e8a)" style="fill: #ff7f0e; opacity: 0.5"/>
   </g>
   <g id="patch_226">
    <path d="M 155.816198 307.584 
L 159.095537 307.584 
L 159.095537 307.584 
L 155.816198 307.584 
z
" clip-path="url(#p816a077e8a)" style="fill: #ff7f0e; opacity: 0.5"/>
   </g>
   <g id="patch_227">
    <path d="M 159.095537 307.584 
L 162.374876 307.584 
L 162.374876 307.584 
L 159.095537 307.584 
z
" clip-path="url(#p816a077e8a)" style="fill: #ff7f0e; opacity: 0.5"/>
   </g>
   <g id="patch_228">
    <path d="M 162.374876 307.584 
L 165.654215 307.584 
L 165.654215 307.584 
L 162.374876 307.584 
z
" clip-path="url(#p816a077e8a)" style="fill: #ff7f0e; opacity: 0.5"/>
   </g>
   <g id="patch_229">
    <path d="M 165.654215 307.584 
L 168.933554 307.584 
L 168.933554 307.397647 
L 165.654215 307.397647 
z
" clip-path="url(#p816a077e8a)" style="fill: #ff7f0e; opacity: 0.5"/>
   </g>
   <g id="patch_230">
    <path d="M 168.933554 307.584 
L 172.212893 307.584 
L 172.212893 307.304471 
L 168.933554 307.304471 
z
" clip-path="url(#p816a077e8a)" style="fill: #ff7f0e; opacity: 0.5"/>
   </g>
   <g id="patch_231">
    <path d="M 172.212893 307.584 
L 175.492231 307.584 
L 175.492231 306.931765 
L 172.212893 306.931765 
z
" clip-path="url(#p816a077e8a)" style="fill: #ff7f0e; opacity: 0.5"/>
   </g>
   <g id="patch_232">
    <path d="M 175.492231 307.584 
L 178.77157 307.584 
L 178.77157 306.559059 
L 175.492231 306.559059 
z
" clip-path="url(#p816a077e8a)" style="fill: #ff7f0e; opacity: 0.5"/>
   </g>
   <g id="patch_233">
    <path d="M 178.77157 307.584 
L 182.050909 307.584 
L 182.050909 306.186353 
L 178.77157 306.186353 
z
" clip-path="url(#p816a077e8a)" style="fill: #ff7f0e; opacity: 0.5"/>
   </g>
   <g id="patch_234">
    <path d="M 182.050909 307.584 
L 185.330248 307.584 
L 185.330248 305.068235 
L 182.050909 305.068235 
z
" clip-path="url(#p816a077e8a)" style="fill: #ff7f0e; opacity: 0.5"/>
   </g>
   <g id="patch_235">
    <path d="M 185.330248 307.584 
L 188.609587 307.584 
L 188.609587 303.950118 
L 185.330248 303.950118 
z
" clip-path="url(#p816a077e8a)" style="fill: #ff7f0e; opacity: 0.5"/>
   </g>
   <g id="patch_236">
    <path d="M 188.609587 307.584 
L 191.888926 307.584 
L 191.888926 301.154824 
L 188.609587 301.154824 
z
" clip-path="url(#p816a077e8a)" style="fill: #ff7f0e; opacity: 0.5"/>
   </g>
   <g id="patch_237">
    <path d="M 191.888926 307.584 
L 195.168264 307.584 
L 195.168264 299.943529 
L 191.888926 299.943529 
z
" clip-path="url(#p816a077e8a)" style="fill: #ff7f0e; opacity: 0.5"/>
   </g>
   <g id="patch_238">
    <path d="M 195.168264 307.584 
L 198.447603 307.584 
L 198.447603 296.216471 
L 195.168264 296.216471 
z
" clip-path="url(#p816a077e8a)" style="fill: #ff7f0e; opacity: 0.5"/>
   </g>
   <g id="patch_239">
    <path d="M 198.447603 307.584 
L 201.726942 307.584 
L 201.726942 290.998588 
L 198.447603 290.998588 
z
" clip-path="url(#p816a077e8a)" style="fill: #ff7f0e; opacity: 0.5"/>
   </g>
   <g id="patch_240">
    <path d="M 201.726942 307.584 
L 205.006281 307.584 
L 205.006281 285.501176 
L 201.726942 285.501176 
z
" clip-path="url(#p816a077e8a)" style="fill: #ff7f0e; opacity: 0.5"/>
   </g>
   <g id="patch_241">
    <path d="M 205.006281 307.584 
L 208.28562 307.584 
L 208.28562 278.047059 
L 205.006281 278.047059 
z
" clip-path="url(#p816a077e8a)" style="fill: #ff7f0e; opacity: 0.5"/>
   </g>
   <g id="patch_242">
    <path d="M 208.28562 307.584 
L 211.564959 307.584 
L 211.564959 272.363294 
L 208.28562 272.363294 
z
" clip-path="url(#p816a077e8a)" style="fill: #ff7f0e; opacity: 0.5"/>
   </g>
   <g id="patch_243">
    <path d="M 211.564959 307.584 
L 214.844298 307.584 
L 214.844298 264.816 
L 211.564959 264.816 
z
" clip-path="url(#p816a077e8a)" style="fill: #ff7f0e; opacity: 0.5"/>
   </g>
   <g id="patch_244">
    <path d="M 214.844298 307.584 
L 218.123636 307.584 
L 218.123636 253.355294 
L 214.844298 253.355294 
z
" clip-path="url(#p816a077e8a)" style="fill: #ff7f0e; opacity: 0.5"/>
   </g>
   <g id="patch_245">
    <path d="M 218.123636 307.584 
L 221.402975 307.584 
L 221.402975 240.403765 
L 218.123636 240.403765 
z
" clip-path="url(#p816a077e8a)" style="fill: #ff7f0e; opacity: 0.5"/>
   </g>
   <g id="patch_246">
    <path d="M 221.402975 307.584 
L 224.682314 307.584 
L 224.682314 233.508706 
L 221.402975 233.508706 
z
" clip-path="url(#p816a077e8a)" style="fill: #ff7f0e; opacity: 0.5"/>
   </g>
   <g id="patch_247">
    <path d="M 224.682314 307.584 
L 227.961653 307.584 
L 227.961653 220.743529 
L 224.682314 220.743529 
z
" clip-path="url(#p816a077e8a)" style="fill: #ff7f0e; opacity: 0.5"/>
   </g>
   <g id="patch_248">
    <path d="M 227.961653 307.584 
L 231.240992 307.584 
L 231.240992 212.450824 
L 227.961653 212.450824 
z
" clip-path="url(#p816a077e8a)" style="fill: #ff7f0e; opacity: 0.5"/>
   </g>
   <g id="patch_249">
    <path d="M 231.240992 307.584 
L 234.520331 307.584 
L 234.520331 196.424471 
L 231.240992 196.424471 
z
" clip-path="url(#p816a077e8a)" style="fill: #ff7f0e; opacity: 0.5"/>
   </g>
   <g id="patch_250">
    <path d="M 234.520331 307.584 
L 237.799669 307.584 
L 237.799669 186.827294 
L 234.520331 186.827294 
z
" clip-path="url(#p816a077e8a)" style="fill: #ff7f0e; opacity: 0.5"/>
   </g>
   <g id="patch_251">
    <path d="M 237.799669 307.584 
L 241.079008 307.584 
L 241.079008 185.616 
L 237.799669 185.616 
z
" clip-path="url(#p816a077e8a)" style="fill: #ff7f0e; opacity: 0.5"/>
   </g>
   <g id="patch_252">
    <path d="M 241.079008 307.584 
L 244.358347 307.584 
L 244.358347 180.491294 
L 241.079008 180.491294 
z
" clip-path="url(#p816a077e8a)" style="fill: #ff7f0e; opacity: 0.5"/>
   </g>
   <g id="patch_253">
    <path d="M 244.358347 307.584 
L 247.637686 307.584 
L 247.637686 181.609412 
L 244.358347 181.609412 
z
" clip-path="url(#p816a077e8a)" style="fill: #ff7f0e; opacity: 0.5"/>
   </g>
   <g id="patch_254">
    <path d="M 247.637686 307.584 
L 250.917025 307.584 
L 250.917025 184.497882 
L 247.637686 184.497882 
z
" clip-path="url(#p816a077e8a)" style="fill: #ff7f0e; opacity: 0.5"/>
   </g>
   <g id="patch_255">
    <path d="M 250.917025 307.584 
L 254.196364 307.584 
L 254.196364 178.161882 
L 250.917025 178.161882 
z
" clip-path="url(#p816a077e8a)" style="fill: #ff7f0e; opacity: 0.5"/>
   </g>
   <g id="patch_256">
    <path d="M 254.196364 307.584 
L 257.475702 307.584 
L 257.475702 183.938824 
L 254.196364 183.938824 
z
" clip-path="url(#p816a077e8a)" style="fill: #ff7f0e; opacity: 0.5"/>
   </g>
   <g id="patch_257">
    <path d="M 257.475702 307.584 
L 260.755041 307.584 
L 260.755041 190.368 
L 257.475702 190.368 
z
" clip-path="url(#p816a077e8a)" style="fill: #ff7f0e; opacity: 0.5"/>
   </g>
   <g id="patch_258">
    <path d="M 260.755041 307.584 
L 264.03438 307.584 
L 264.03438 199.685647 
L 260.755041 199.685647 
z
" clip-path="url(#p816a077e8a)" style="fill: #ff7f0e; opacity: 0.5"/>
   </g>
   <g id="patch_259">
    <path d="M 264.03438 307.584 
L 267.313719 307.584 
L 267.313719 207.792 
L 264.03438 207.792 
z
" clip-path="url(#p816a077e8a)" style="fill: #ff7f0e; opacity: 0.5"/>
   </g>
   <g id="patch_260">
    <path d="M 267.313719 307.584 
L 270.593058 307.584 
L 270.593058 219.998118 
L 267.313719 219.998118 
z
" clip-path="url(#p816a077e8a)" style="fill: #ff7f0e; opacity: 0.5"/>
   </g>
   <g id="patch_261">
    <path d="M 270.593058 307.584 
L 273.872397 307.584 
L 273.872397 225.122824 
L 270.593058 225.122824 
z
" clip-path="url(#p816a077e8a)" style="fill: #ff7f0e; opacity: 0.5"/>
   </g>
   <g id="patch_262">
    <path d="M 273.872397 307.584 
L 277.151736 307.584 
L 277.151736 223.911529 
L 273.872397 223.911529 
z
" clip-path="url(#p816a077e8a)" style="fill: #ff7f0e; opacity: 0.5"/>
   </g>
   <g id="patch_263">
    <path d="M 277.151736 307.584 
L 280.431074 307.584 
L 280.431074 233.695059 
L 277.151736 233.695059 
z
" clip-path="url(#p816a077e8a)" style="fill: #ff7f0e; opacity: 0.5"/>
   </g>
   <g id="patch_264">
    <path d="M 280.431074 307.584 
L 283.710413 307.584 
L 283.710413 246.273882 
L 280.431074 246.273882 
z
" clip-path="url(#p816a077e8a)" style="fill: #ff7f0e; opacity: 0.5"/>
   </g>
   <g id="patch_265">
    <path d="M 283.710413 307.584 
L 286.989752 307.584 
L 286.989752 250.094118 
L 283.710413 250.094118 
z
" clip-path="url(#p816a077e8a)" style="fill: #ff7f0e; opacity: 0.5"/>
   </g>
   <g id="patch_266">
    <path d="M 286.989752 307.584 
L 290.269091 307.584 
L 290.269091 258.014118 
L 286.989752 258.014118 
z
" clip-path="url(#p816a077e8a)" style="fill: #ff7f0e; opacity: 0.5"/>
   </g>
   <g id="patch_267">
    <path d="M 290.269091 307.584 
L 293.54843 307.584 
L 293.54843 267.424941 
L 290.269091 267.424941 
z
" clip-path="url(#p816a077e8a)" style="fill: #ff7f0e; opacity: 0.5"/>
   </g>
   <g id="patch_268">
    <path d="M 293.54843 307.584 
L 296.827769 307.584 
L 296.827769 270.220235 
L 293.54843 270.220235 
z
" clip-path="url(#p816a077e8a)" style="fill: #ff7f0e; opacity: 0.5"/>
   </g>
   <g id="patch_269">
    <path d="M 296.827769 307.584 
L 300.107107 307.584 
L 300.107107 275.997176 
L 296.827769 275.997176 
z
" clip-path="url(#p816a077e8a)" style="fill: #ff7f0e; opacity: 0.5"/>
   </g>
   <g id="patch_270">
    <path d="M 300.107107 307.584 
L 303.386446 307.584 
L 303.386446 278.885647 
L 300.107107 278.885647 
z
" clip-path="url(#p816a077e8a)" style="fill: #ff7f0e; opacity: 0.5"/>
   </g>
   <g id="patch_271">
    <path d="M 303.386446 307.584 
L 306.665785 307.584 
L 306.665785 282.612706 
L 303.386446 282.612706 
z
" clip-path="url(#p816a077e8a)" style="fill: #ff7f0e; opacity: 0.5"/>
   </g>
   <g id="patch_272">
    <path d="M 306.665785 307.584 
L 309.945124 307.584 
L 309.945124 284.662588 
L 306.665785 284.662588 
z
" clip-path="url(#p816a077e8a)" style="fill: #ff7f0e; opacity: 0.5"/>
   </g>
   <g id="patch_273">
    <path d="M 309.945124 307.584 
L 313.224463 307.584 
L 313.224463 290.905412 
L 309.945124 290.905412 
z
" clip-path="url(#p816a077e8a)" style="fill: #ff7f0e; opacity: 0.5"/>
   </g>
   <g id="patch_274">
    <path d="M 313.224463 307.584 
L 316.503802 307.584 
L 316.503802 293.980235 
L 313.224463 293.980235 
z
" clip-path="url(#p816a077e8a)" style="fill: #ff7f0e; opacity: 0.5"/>
   </g>
   <g id="patch_275">
    <path d="M 316.503802 307.584 
L 319.78314 307.584 
L 319.78314 292.489412 
L 316.503802 292.489412 
z
" clip-path="url(#p816a077e8a)" style="fill: #ff7f0e; opacity: 0.5"/>
   </g>
   <g id="patch_276">
    <path d="M 319.78314 307.584 
L 323.062479 307.584 
L 323.062479 293.887059 
L 319.78314 293.887059 
z
" clip-path="url(#p816a077e8a)" style="fill: #ff7f0e; opacity: 0.5"/>
   </g>
   <g id="patch_277">
    <path d="M 323.062479 307.584 
L 326.341818 307.584 
L 326.341818 296.216471 
L 323.062479 296.216471 
z
" clip-path="url(#p816a077e8a)" style="fill: #ff7f0e; opacity: 0.5"/>
   </g>
   <g id="patch_278">
    <path d="M 326.341818 307.584 
L 329.621157 307.584 
L 329.621157 297.055059 
L 326.341818 297.055059 
z
" clip-path="url(#p816a077e8a)" style="fill: #ff7f0e; opacity: 0.5"/>
   </g>
   <g id="patch_279">
    <path d="M 329.621157 307.584 
L 332.900496 307.584 
L 332.900496 299.757176 
L 329.621157 299.757176 
z
" clip-path="url(#p816a077e8a)" style="fill: #ff7f0e; opacity: 0.5"/>
   </g>
   <g id="patch_280">
    <path d="M 332.900496 307.584 
L 336.179835 307.584 
L 336.179835 300.782118 
L 332.900496 300.782118 
z
" clip-path="url(#p816a077e8a)" style="fill: #ff7f0e; opacity: 0.5"/>
   </g>
   <g id="patch_281">
    <path d="M 336.179835 307.584 
L 339.459174 307.584 
L 339.459174 300.036706 
L 336.179835 300.036706 
z
" clip-path="url(#p816a077e8a)" style="fill: #ff7f0e; opacity: 0.5"/>
   </g>
   <g id="patch_282">
    <path d="M 339.459174 307.584 
L 342.738512 307.584 
L 342.738512 303.297882 
L 339.459174 303.297882 
z
" clip-path="url(#p816a077e8a)" style="fill: #ff7f0e; opacity: 0.5"/>
   </g>
   <g id="patch_283">
    <path d="M 342.738512 307.584 
L 346.017851 307.584 
L 346.017851 302.832 
L 342.738512 302.832 
z
" clip-path="url(#p816a077e8a)" style="fill: #ff7f0e; opacity: 0.5"/>
   </g>
   <g id="patch_284">
    <path d="M 346.017851 307.584 
L 349.29719 307.584 
L 349.29719 303.856941 
L 346.017851 303.856941 
z
" clip-path="url(#p816a077e8a)" style="fill: #ff7f0e; opacity: 0.5"/>
   </g>
   <g id="patch_285">
    <path d="M 349.29719 307.584 
L 352.576529 307.584 
L 352.576529 306.186353 
L 349.29719 306.186353 
z
" clip-path="url(#p816a077e8a)" style="fill: #ff7f0e; opacity: 0.5"/>
   </g>
   <g id="patch_286">
    <path d="M 352.576529 307.584 
L 355.855868 307.584 
L 355.855868 305.347765 
L 352.576529 305.347765 
z
" clip-path="url(#p816a077e8a)" style="fill: #ff7f0e; opacity: 0.5"/>
   </g>
   <g id="patch_287">
    <path d="M 355.855868 307.584 
L 359.135207 307.584 
L 359.135207 306.465882 
L 355.855868 306.465882 
z
" clip-path="url(#p816a077e8a)" style="fill: #ff7f0e; opacity: 0.5"/>
   </g>
   <g id="patch_288">
    <path d="M 359.135207 307.584 
L 362.414545 307.584 
L 362.414545 306.279529 
L 359.135207 306.279529 
z
" clip-path="url(#p816a077e8a)" style="fill: #ff7f0e; opacity: 0.5"/>
   </g>
   <g id="patch_289">
    <path d="M 362.414545 307.584 
L 365.693884 307.584 
L 365.693884 306.931765 
L 362.414545 306.931765 
z
" clip-path="url(#p816a077e8a)" style="fill: #ff7f0e; opacity: 0.5"/>
   </g>
   <g id="patch_290">
    <path d="M 365.693884 307.584 
L 368.973223 307.584 
L 368.973223 307.118118 
L 365.693884 307.118118 
z
" clip-path="url(#p816a077e8a)" style="fill: #ff7f0e; opacity: 0.5"/>
   </g>
   <g id="patch_291">
    <path d="M 368.973223 307.584 
L 372.252562 307.584 
L 372.252562 307.118118 
L 368.973223 307.118118 
z
" clip-path="url(#p816a077e8a)" style="fill: #ff7f0e; opacity: 0.5"/>
   </g>
   <g id="patch_292">
    <path d="M 372.252562 307.584 
L 375.531901 307.584 
L 375.531901 307.211294 
L 372.252562 307.211294 
z
" clip-path="url(#p816a077e8a)" style="fill: #ff7f0e; opacity: 0.5"/>
   </g>
   <g id="patch_293">
    <path d="M 375.531901 307.584 
L 378.81124 307.584 
L 378.81124 307.584 
L 375.531901 307.584 
z
" clip-path="url(#p816a077e8a)" style="fill: #ff7f0e; opacity: 0.5"/>
   </g>
   <g id="patch_294">
    <path d="M 378.81124 307.584 
L 382.090579 307.584 
L 382.090579 307.584 
L 378.81124 307.584 
z
" clip-path="url(#p816a077e8a)" style="fill: #ff7f0e; opacity: 0.5"/>
   </g>
   <g id="patch_295">
    <path d="M 382.090579 307.584 
L 385.369917 307.584 
L 385.369917 307.584 
L 382.090579 307.584 
z
" clip-path="url(#p816a077e8a)" style="fill: #ff7f0e; opacity: 0.5"/>
   </g>
   <g id="patch_296">
    <path d="M 385.369917 307.584 
L 388.649256 307.584 
L 388.649256 307.584 
L 385.369917 307.584 
z
" clip-path="url(#p816a077e8a)" style="fill: #ff7f0e; opacity: 0.5"/>
   </g>
   <g id="patch_297">
    <path d="M 388.649256 307.584 
L 391.928595 307.584 
L 391.928595 307.584 
L 388.649256 307.584 
z
" clip-path="url(#p816a077e8a)" style="fill: #ff7f0e; opacity: 0.5"/>
   </g>
   <g id="patch_298">
    <path d="M 391.928595 307.584 
L 395.207934 307.584 
L 395.207934 307.584 
L 391.928595 307.584 
z
" clip-path="url(#p816a077e8a)" style="fill: #ff7f0e; opacity: 0.5"/>
   </g>
   <g id="patch_299">
    <path d="M 395.207934 307.584 
L 398.487273 307.584 
L 398.487273 307.584 
L 395.207934 307.584 
z
" clip-path="url(#p816a077e8a)" style="fill: #ff7f0e; opacity: 0.5"/>
   </g>
   <g id="matplotlib.axis_1">
    <g id="xtick_1">
     <g id="line2d_1">
      <defs>
       <path id="m6446d7eee9" d="M 0 0 
L 0 3.5 
" style="stroke: #000000; stroke-width: 0.8"/>
      </defs>
      <g>
       <use xlink:href="#m6446d7eee9" x="73.832727" y="307.584" style="stroke: #000000; stroke-width: 0.8"/>
      </g>
     </g>
     <g id="text_1">
      <!-- 0.0 -->
      <g transform="translate(65.881165 322.182437) scale(0.1 -0.1)">
       <defs>
        <path id="DejaVuSans-30" d="M 2034 4250 
Q 1547 4250 1301 3770 
Q 1056 3291 1056 2328 
Q 1056 1369 1301 889 
Q 1547 409 2034 409 
Q 2525 409 2770 889 
Q 3016 1369 3016 2328 
Q 3016 3291 2770 3770 
Q 2525 4250 2034 4250 
z
M 2034 4750 
Q 2819 4750 3233 4129 
Q 3647 3509 3647 2328 
Q 3647 1150 3233 529 
Q 2819 -91 2034 -91 
Q 1250 -91 836 529 
Q 422 1150 422 2328 
Q 422 3509 836 4129 
Q 1250 4750 2034 4750 
z
" transform="scale(0.015625)"/>
        <path id="DejaVuSans-2e" d="M 684 794 
L 1344 794 
L 1344 0 
L 684 0 
L 684 794 
z
" transform="scale(0.015625)"/>
       </defs>
       <use xlink:href="#DejaVuSans-30"/>
       <use xlink:href="#DejaVuSans-2e" x="63.623047"/>
       <use xlink:href="#DejaVuSans-30" x="95.410156"/>
      </g>
     </g>
    </g>
    <g id="xtick_2">
     <g id="line2d_2">
      <g>
       <use xlink:href="#m6446d7eee9" x="138.763636" y="307.584" style="stroke: #000000; stroke-width: 0.8"/>
      </g>
     </g>
     <g id="text_2">
      <!-- 0.2 -->
      <g transform="translate(130.812074 322.182437) scale(0.1 -0.1)">
       <defs>
        <path id="DejaVuSans-32" d="M 1228 531 
L 3431 531 
L 3431 0 
L 469 0 
L 469 531 
Q 828 903 1448 1529 
Q 2069 2156 2228 2338 
Q 2531 2678 2651 2914 
Q 2772 3150 2772 3378 
Q 2772 3750 2511 3984 
Q 2250 4219 1831 4219 
Q 1534 4219 1204 4116 
Q 875 4013 500 3803 
L 500 4441 
Q 881 4594 1212 4672 
Q 1544 4750 1819 4750 
Q 2544 4750 2975 4387 
Q 3406 4025 3406 3419 
Q 3406 3131 3298 2873 
Q 3191 2616 2906 2266 
Q 2828 2175 2409 1742 
Q 1991 1309 1228 531 
z
" transform="scale(0.015625)"/>
       </defs>
       <use xlink:href="#DejaVuSans-30"/>
       <use xlink:href="#DejaVuSans-2e" x="63.623047"/>
       <use xlink:href="#DejaVuSans-32" x="95.410156"/>
      </g>
     </g>
    </g>
    <g id="xtick_3">
     <g id="line2d_3">
      <g>
       <use xlink:href="#m6446d7eee9" x="203.694545" y="307.584" style="stroke: #000000; stroke-width: 0.8"/>
      </g>
     </g>
     <g id="text_3">
      <!-- 0.4 -->
      <g transform="translate(195.742983 322.182437) scale(0.1 -0.1)">
       <defs>
        <path id="DejaVuSans-34" d="M 2419 4116 
L 825 1625 
L 2419 1625 
L 2419 4116 
z
M 2253 4666 
L 3047 4666 
L 3047 1625 
L 3713 1625 
L 3713 1100 
L 3047 1100 
L 3047 0 
L 2419 0 
L 2419 1100 
L 313 1100 
L 313 1709 
L 2253 4666 
z
" transform="scale(0.015625)"/>
       </defs>
       <use xlink:href="#DejaVuSans-30"/>
       <use xlink:href="#DejaVuSans-2e" x="63.623047"/>
       <use xlink:href="#DejaVuSans-34" x="95.410156"/>
      </g>
     </g>
    </g>
    <g id="xtick_4">
     <g id="line2d_4">
      <g>
       <use xlink:href="#m6446d7eee9" x="268.625455" y="307.584" style="stroke: #000000; stroke-width: 0.8"/>
      </g>
     </g>
     <g id="text_4">
      <!-- 0.6 -->
      <g transform="translate(260.673892 322.182437) scale(0.1 -0.1)">
       <defs>
        <path id="DejaVuSans-36" d="M 2113 2584 
Q 1688 2584 1439 2293 
Q 1191 2003 1191 1497 
Q 1191 994 1439 701 
Q 1688 409 2113 409 
Q 2538 409 2786 701 
Q 3034 994 3034 1497 
Q 3034 2003 2786 2293 
Q 2538 2584 2113 2584 
z
M 3366 4563 
L 3366 3988 
Q 3128 4100 2886 4159 
Q 2644 4219 2406 4219 
Q 1781 4219 1451 3797 
Q 1122 3375 1075 2522 
Q 1259 2794 1537 2939 
Q 1816 3084 2150 3084 
Q 2853 3084 3261 2657 
Q 3669 2231 3669 1497 
Q 3669 778 3244 343 
Q 2819 -91 2113 -91 
Q 1303 -91 875 529 
Q 447 1150 447 2328 
Q 447 3434 972 4092 
Q 1497 4750 2381 4750 
Q 2619 4750 2861 4703 
Q 3103 4656 3366 4563 
z
" transform="scale(0.015625)"/>
       </defs>
       <use xlink:href="#DejaVuSans-30"/>
       <use xlink:href="#DejaVuSans-2e" x="63.623047"/>
       <use xlink:href="#DejaVuSans-36" x="95.410156"/>
      </g>
     </g>
    </g>
    <g id="xtick_5">
     <g id="line2d_5">
      <g>
       <use xlink:href="#m6446d7eee9" x="333.556364" y="307.584" style="stroke: #000000; stroke-width: 0.8"/>
      </g>
     </g>
     <g id="text_5">
      <!-- 0.8 -->
      <g transform="translate(325.604801 322.182437) scale(0.1 -0.1)">
       <defs>
        <path id="DejaVuSans-38" d="M 2034 2216 
Q 1584 2216 1326 1975 
Q 1069 1734 1069 1313 
Q 1069 891 1326 650 
Q 1584 409 2034 409 
Q 2484 409 2743 651 
Q 3003 894 3003 1313 
Q 3003 1734 2745 1975 
Q 2488 2216 2034 2216 
z
M 1403 2484 
Q 997 2584 770 2862 
Q 544 3141 544 3541 
Q 544 4100 942 4425 
Q 1341 4750 2034 4750 
Q 2731 4750 3128 4425 
Q 3525 4100 3525 3541 
Q 3525 3141 3298 2862 
Q 3072 2584 2669 2484 
Q 3125 2378 3379 2068 
Q 3634 1759 3634 1313 
Q 3634 634 3220 271 
Q 2806 -91 2034 -91 
Q 1263 -91 848 271 
Q 434 634 434 1313 
Q 434 1759 690 2068 
Q 947 2378 1403 2484 
z
M 1172 3481 
Q 1172 3119 1398 2916 
Q 1625 2713 2034 2713 
Q 2441 2713 2670 2916 
Q 2900 3119 2900 3481 
Q 2900 3844 2670 4047 
Q 2441 4250 2034 4250 
Q 1625 4250 1398 4047 
Q 1172 3844 1172 3481 
z
" transform="scale(0.015625)"/>
       </defs>
       <use xlink:href="#DejaVuSans-30"/>
       <use xlink:href="#DejaVuSans-2e" x="63.623047"/>
       <use xlink:href="#DejaVuSans-38" x="95.410156"/>
      </g>
     </g>
    </g>
    <g id="xtick_6">
     <g id="line2d_6">
      <g>
       <use xlink:href="#m6446d7eee9" x="398.487273" y="307.584" style="stroke: #000000; stroke-width: 0.8"/>
      </g>
     </g>
     <g id="text_6">
      <!-- 1.0 -->
      <g transform="translate(390.53571 322.182437) scale(0.1 -0.1)">
       <defs>
        <path id="DejaVuSans-31" d="M 794 531 
L 1825 531 
L 1825 4091 
L 703 3866 
L 703 4441 
L 1819 4666 
L 2450 4666 
L 2450 531 
L 3481 531 
L 3481 0 
L 794 0 
L 794 531 
z
" transform="scale(0.015625)"/>
       </defs>
       <use xlink:href="#DejaVuSans-31"/>
       <use xlink:href="#DejaVuSans-2e" x="63.623047"/>
       <use xlink:href="#DejaVuSans-30" x="95.410156"/>
      </g>
     </g>
    </g>
    <g id="text_7">
     <!-- Cosine similarity -->
     <g transform="translate(194.710781 335.860562) scale(0.1 -0.1)">
      <defs>
       <path id="DejaVuSans-43" d="M 4122 4306 
L 4122 3641 
Q 3803 3938 3442 4084 
Q 3081 4231 2675 4231 
Q 1875 4231 1450 3742 
Q 1025 3253 1025 2328 
Q 1025 1406 1450 917 
Q 1875 428 2675 428 
Q 3081 428 3442 575 
Q 3803 722 4122 1019 
L 4122 359 
Q 3791 134 3420 21 
Q 3050 -91 2638 -91 
Q 1578 -91 968 557 
Q 359 1206 359 2328 
Q 359 3453 968 4101 
Q 1578 4750 2638 4750 
Q 3056 4750 3426 4639 
Q 3797 4528 4122 4306 
z
" transform="scale(0.015625)"/>
       <path id="DejaVuSans-6f" d="M 1959 3097 
Q 1497 3097 1228 2736 
Q 959 2375 959 1747 
Q 959 1119 1226 758 
Q 1494 397 1959 397 
Q 2419 397 2687 759 
Q 2956 1122 2956 1747 
Q 2956 2369 2687 2733 
Q 2419 3097 1959 3097 
z
M 1959 3584 
Q 2709 3584 3137 3096 
Q 3566 2609 3566 1747 
Q 3566 888 3137 398 
Q 2709 -91 1959 -91 
Q 1206 -91 779 398 
Q 353 888 353 1747 
Q 353 2609 779 3096 
Q 1206 3584 1959 3584 
z
" transform="scale(0.015625)"/>
       <path id="DejaVuSans-73" d="M 2834 3397 
L 2834 2853 
Q 2591 2978 2328 3040 
Q 2066 3103 1784 3103 
Q 1356 3103 1142 2972 
Q 928 2841 928 2578 
Q 928 2378 1081 2264 
Q 1234 2150 1697 2047 
L 1894 2003 
Q 2506 1872 2764 1633 
Q 3022 1394 3022 966 
Q 3022 478 2636 193 
Q 2250 -91 1575 -91 
Q 1294 -91 989 -36 
Q 684 19 347 128 
L 347 722 
Q 666 556 975 473 
Q 1284 391 1588 391 
Q 1994 391 2212 530 
Q 2431 669 2431 922 
Q 2431 1156 2273 1281 
Q 2116 1406 1581 1522 
L 1381 1569 
Q 847 1681 609 1914 
Q 372 2147 372 2553 
Q 372 3047 722 3315 
Q 1072 3584 1716 3584 
Q 2034 3584 2315 3537 
Q 2597 3491 2834 3397 
z
" transform="scale(0.015625)"/>
       <path id="DejaVuSans-69" d="M 603 3500 
L 1178 3500 
L 1178 0 
L 603 0 
L 603 3500 
z
M 603 4863 
L 1178 4863 
L 1178 4134 
L 603 4134 
L 603 4863 
z
" transform="scale(0.015625)"/>
       <path id="DejaVuSans-6e" d="M 3513 2113 
L 3513 0 
L 2938 0 
L 2938 2094 
Q 2938 2591 2744 2837 
Q 2550 3084 2163 3084 
Q 1697 3084 1428 2787 
Q 1159 2491 1159 1978 
L 1159 0 
L 581 0 
L 581 3500 
L 1159 3500 
L 1159 2956 
Q 1366 3272 1645 3428 
Q 1925 3584 2291 3584 
Q 2894 3584 3203 3211 
Q 3513 2838 3513 2113 
z
" transform="scale(0.015625)"/>
       <path id="DejaVuSans-65" d="M 3597 1894 
L 3597 1613 
L 953 1613 
Q 991 1019 1311 708 
Q 1631 397 2203 397 
Q 2534 397 2845 478 
Q 3156 559 3463 722 
L 3463 178 
Q 3153 47 2828 -22 
Q 2503 -91 2169 -91 
Q 1331 -91 842 396 
Q 353 884 353 1716 
Q 353 2575 817 3079 
Q 1281 3584 2069 3584 
Q 2775 3584 3186 3129 
Q 3597 2675 3597 1894 
z
M 3022 2063 
Q 3016 2534 2758 2815 
Q 2500 3097 2075 3097 
Q 1594 3097 1305 2825 
Q 1016 2553 972 2059 
L 3022 2063 
z
" transform="scale(0.015625)"/>
       <path id="DejaVuSans-20" transform="scale(0.015625)"/>
       <path id="DejaVuSans-6d" d="M 3328 2828 
Q 3544 3216 3844 3400 
Q 4144 3584 4550 3584 
Q 5097 3584 5394 3201 
Q 5691 2819 5691 2113 
L 5691 0 
L 5113 0 
L 5113 2094 
Q 5113 2597 4934 2840 
Q 4756 3084 4391 3084 
Q 3944 3084 3684 2787 
Q 3425 2491 3425 1978 
L 3425 0 
L 2847 0 
L 2847 2094 
Q 2847 2600 2669 2842 
Q 2491 3084 2119 3084 
Q 1678 3084 1418 2786 
Q 1159 2488 1159 1978 
L 1159 0 
L 581 0 
L 581 3500 
L 1159 3500 
L 1159 2956 
Q 1356 3278 1631 3431 
Q 1906 3584 2284 3584 
Q 2666 3584 2933 3390 
Q 3200 3197 3328 2828 
z
" transform="scale(0.015625)"/>
       <path id="DejaVuSans-6c" d="M 603 4863 
L 1178 4863 
L 1178 0 
L 603 0 
L 603 4863 
z
" transform="scale(0.015625)"/>
       <path id="DejaVuSans-61" d="M 2194 1759 
Q 1497 1759 1228 1600 
Q 959 1441 959 1056 
Q 959 750 1161 570 
Q 1363 391 1709 391 
Q 2188 391 2477 730 
Q 2766 1069 2766 1631 
L 2766 1759 
L 2194 1759 
z
M 3341 1997 
L 3341 0 
L 2766 0 
L 2766 531 
Q 2569 213 2275 61 
Q 1981 -91 1556 -91 
Q 1019 -91 701 211 
Q 384 513 384 1019 
Q 384 1609 779 1909 
Q 1175 2209 1959 2209 
L 2766 2209 
L 2766 2266 
Q 2766 2663 2505 2880 
Q 2244 3097 1772 3097 
Q 1472 3097 1187 3025 
Q 903 2953 641 2809 
L 641 3341 
Q 956 3463 1253 3523 
Q 1550 3584 1831 3584 
Q 2591 3584 2966 3190 
Q 3341 2797 3341 1997 
z
" transform="scale(0.015625)"/>
       <path id="DejaVuSans-72" d="M 2631 2963 
Q 2534 3019 2420 3045 
Q 2306 3072 2169 3072 
Q 1681 3072 1420 2755 
Q 1159 2438 1159 1844 
L 1159 0 
L 581 0 
L 581 3500 
L 1159 3500 
L 1159 2956 
Q 1341 3275 1631 3429 
Q 1922 3584 2338 3584 
Q 2397 3584 2469 3576 
Q 2541 3569 2628 3553 
L 2631 2963 
z
" transform="scale(0.015625)"/>
       <path id="DejaVuSans-74" d="M 1172 4494 
L 1172 3500 
L 2356 3500 
L 2356 3053 
L 1172 3053 
L 1172 1153 
Q 1172 725 1289 603 
Q 1406 481 1766 481 
L 2356 481 
L 2356 0 
L 1766 0 
Q 1100 0 847 248 
Q 594 497 594 1153 
L 594 3053 
L 172 3053 
L 172 3500 
L 594 3500 
L 594 4494 
L 1172 4494 
z
" transform="scale(0.015625)"/>
       <path id="DejaVuSans-79" d="M 2059 -325 
Q 1816 -950 1584 -1140 
Q 1353 -1331 966 -1331 
L 506 -1331 
L 506 -850 
L 844 -850 
Q 1081 -850 1212 -737 
Q 1344 -625 1503 -206 
L 1606 56 
L 191 3500 
L 800 3500 
L 1894 763 
L 2988 3500 
L 3597 3500 
L 2059 -325 
z
" transform="scale(0.015625)"/>
      </defs>
      <use xlink:href="#DejaVuSans-43"/>
      <use xlink:href="#DejaVuSans-6f" x="69.824219"/>
      <use xlink:href="#DejaVuSans-73" x="131.005859"/>
      <use xlink:href="#DejaVuSans-69" x="183.105469"/>
      <use xlink:href="#DejaVuSans-6e" x="210.888672"/>
      <use xlink:href="#DejaVuSans-65" x="274.267578"/>
      <use xlink:href="#DejaVuSans-20" x="335.791016"/>
      <use xlink:href="#DejaVuSans-73" x="367.578125"/>
      <use xlink:href="#DejaVuSans-69" x="419.677734"/>
      <use xlink:href="#DejaVuSans-6d" x="447.460938"/>
      <use xlink:href="#DejaVuSans-69" x="544.873047"/>
      <use xlink:href="#DejaVuSans-6c" x="572.65625"/>
      <use xlink:href="#DejaVuSans-61" x="600.439453"/>
      <use xlink:href="#DejaVuSans-72" x="661.71875"/>
      <use xlink:href="#DejaVuSans-69" x="702.832031"/>
      <use xlink:href="#DejaVuSans-74" x="730.615234"/>
      <use xlink:href="#DejaVuSans-79" x="769.824219"/>
     </g>
    </g>
   </g>
   <g id="matplotlib.axis_2">
    <g id="ytick_1">
     <g id="line2d_7">
      <defs>
       <path id="m0221eba743" d="M 0 0 
L -3.5 0 
" style="stroke: #000000; stroke-width: 0.8"/>
      </defs>
      <g>
       <use xlink:href="#m0221eba743" x="57.6" y="307.584" style="stroke: #000000; stroke-width: 0.8"/>
      </g>
     </g>
     <g id="text_8">
      <!-- 0 -->
      <g transform="translate(44.2375 311.383219) scale(0.1 -0.1)">
       <use xlink:href="#DejaVuSans-30"/>
      </g>
     </g>
    </g>
    <g id="ytick_2">
     <g id="line2d_8">
      <g>
       <use xlink:href="#m0221eba743" x="57.6" y="260.995765" style="stroke: #000000; stroke-width: 0.8"/>
      </g>
     </g>
     <g id="text_9">
      <!-- 500 -->
      <g transform="translate(31.5125 264.794983) scale(0.1 -0.1)">
       <defs>
        <path id="DejaVuSans-35" d="M 691 4666 
L 3169 4666 
L 3169 4134 
L 1269 4134 
L 1269 2991 
Q 1406 3038 1543 3061 
Q 1681 3084 1819 3084 
Q 2600 3084 3056 2656 
Q 3513 2228 3513 1497 
Q 3513 744 3044 326 
Q 2575 -91 1722 -91 
Q 1428 -91 1123 -41 
Q 819 9 494 109 
L 494 744 
Q 775 591 1075 516 
Q 1375 441 1709 441 
Q 2250 441 2565 725 
Q 2881 1009 2881 1497 
Q 2881 1984 2565 2268 
Q 2250 2553 1709 2553 
Q 1456 2553 1204 2497 
Q 953 2441 691 2322 
L 691 4666 
z
" transform="scale(0.015625)"/>
       </defs>
       <use xlink:href="#DejaVuSans-35"/>
       <use xlink:href="#DejaVuSans-30" x="63.623047"/>
       <use xlink:href="#DejaVuSans-30" x="127.246094"/>
      </g>
     </g>
    </g>
    <g id="ytick_3">
     <g id="line2d_9">
      <g>
       <use xlink:href="#m0221eba743" x="57.6" y="214.407529" style="stroke: #000000; stroke-width: 0.8"/>
      </g>
     </g>
     <g id="text_10">
      <!-- 1000 -->
      <g transform="translate(25.15 218.206748) scale(0.1 -0.1)">
       <use xlink:href="#DejaVuSans-31"/>
       <use xlink:href="#DejaVuSans-30" x="63.623047"/>
       <use xlink:href="#DejaVuSans-30" x="127.246094"/>
       <use xlink:href="#DejaVuSans-30" x="190.869141"/>
      </g>
     </g>
    </g>
    <g id="ytick_4">
     <g id="line2d_10">
      <g>
       <use xlink:href="#m0221eba743" x="57.6" y="167.819294" style="stroke: #000000; stroke-width: 0.8"/>
      </g>
     </g>
     <g id="text_11">
      <!-- 1500 -->
      <g transform="translate(25.15 171.618513) scale(0.1 -0.1)">
       <use xlink:href="#DejaVuSans-31"/>
       <use xlink:href="#DejaVuSans-35" x="63.623047"/>
       <use xlink:href="#DejaVuSans-30" x="127.246094"/>
       <use xlink:href="#DejaVuSans-30" x="190.869141"/>
      </g>
     </g>
    </g>
    <g id="ytick_5">
     <g id="line2d_11">
      <g>
       <use xlink:href="#m0221eba743" x="57.6" y="121.231059" style="stroke: #000000; stroke-width: 0.8"/>
      </g>
     </g>
     <g id="text_12">
      <!-- 2000 -->
      <g transform="translate(25.15 125.030278) scale(0.1 -0.1)">
       <use xlink:href="#DejaVuSans-32"/>
       <use xlink:href="#DejaVuSans-30" x="63.623047"/>
       <use xlink:href="#DejaVuSans-30" x="127.246094"/>
       <use xlink:href="#DejaVuSans-30" x="190.869141"/>
      </g>
     </g>
    </g>
    <g id="ytick_6">
     <g id="line2d_12">
      <g>
       <use xlink:href="#m0221eba743" x="57.6" y="74.642824" style="stroke: #000000; stroke-width: 0.8"/>
      </g>
     </g>
     <g id="text_13">
      <!-- 2500 -->
      <g transform="translate(25.15 78.442042) scale(0.1 -0.1)">
       <use xlink:href="#DejaVuSans-32"/>
       <use xlink:href="#DejaVuSans-35" x="63.623047"/>
       <use xlink:href="#DejaVuSans-30" x="127.246094"/>
       <use xlink:href="#DejaVuSans-30" x="190.869141"/>
      </g>
     </g>
    </g>
    <g id="text_14">
     <!-- Number of occurrences -->
     <g transform="translate(19.070312 232.924875) rotate(-90) scale(0.1 -0.1)">
      <defs>
       <path id="DejaVuSans-4e" d="M 628 4666 
L 1478 4666 
L 3547 763 
L 3547 4666 
L 4159 4666 
L 4159 0 
L 3309 0 
L 1241 3903 
L 1241 0 
L 628 0 
L 628 4666 
z
" transform="scale(0.015625)"/>
       <path id="DejaVuSans-75" d="M 544 1381 
L 544 3500 
L 1119 3500 
L 1119 1403 
Q 1119 906 1312 657 
Q 1506 409 1894 409 
Q 2359 409 2629 706 
Q 2900 1003 2900 1516 
L 2900 3500 
L 3475 3500 
L 3475 0 
L 2900 0 
L 2900 538 
Q 2691 219 2414 64 
Q 2138 -91 1772 -91 
Q 1169 -91 856 284 
Q 544 659 544 1381 
z
M 1991 3584 
L 1991 3584 
z
" transform="scale(0.015625)"/>
       <path id="DejaVuSans-62" d="M 3116 1747 
Q 3116 2381 2855 2742 
Q 2594 3103 2138 3103 
Q 1681 3103 1420 2742 
Q 1159 2381 1159 1747 
Q 1159 1113 1420 752 
Q 1681 391 2138 391 
Q 2594 391 2855 752 
Q 3116 1113 3116 1747 
z
M 1159 2969 
Q 1341 3281 1617 3432 
Q 1894 3584 2278 3584 
Q 2916 3584 3314 3078 
Q 3713 2572 3713 1747 
Q 3713 922 3314 415 
Q 2916 -91 2278 -91 
Q 1894 -91 1617 61 
Q 1341 213 1159 525 
L 1159 0 
L 581 0 
L 581 4863 
L 1159 4863 
L 1159 2969 
z
" transform="scale(0.015625)"/>
       <path id="DejaVuSans-66" d="M 2375 4863 
L 2375 4384 
L 1825 4384 
Q 1516 4384 1395 4259 
Q 1275 4134 1275 3809 
L 1275 3500 
L 2222 3500 
L 2222 3053 
L 1275 3053 
L 1275 0 
L 697 0 
L 697 3053 
L 147 3053 
L 147 3500 
L 697 3500 
L 697 3744 
Q 697 4328 969 4595 
Q 1241 4863 1831 4863 
L 2375 4863 
z
" transform="scale(0.015625)"/>
       <path id="DejaVuSans-63" d="M 3122 3366 
L 3122 2828 
Q 2878 2963 2633 3030 
Q 2388 3097 2138 3097 
Q 1578 3097 1268 2742 
Q 959 2388 959 1747 
Q 959 1106 1268 751 
Q 1578 397 2138 397 
Q 2388 397 2633 464 
Q 2878 531 3122 666 
L 3122 134 
Q 2881 22 2623 -34 
Q 2366 -91 2075 -91 
Q 1284 -91 818 406 
Q 353 903 353 1747 
Q 353 2603 823 3093 
Q 1294 3584 2113 3584 
Q 2378 3584 2631 3529 
Q 2884 3475 3122 3366 
z
" transform="scale(0.015625)"/>
      </defs>
      <use xlink:href="#DejaVuSans-4e"/>
      <use xlink:href="#DejaVuSans-75" x="74.804688"/>
      <use xlink:href="#DejaVuSans-6d" x="138.183594"/>
      <use xlink:href="#DejaVuSans-62" x="235.595703"/>
      <use xlink:href="#DejaVuSans-65" x="299.072266"/>
      <use xlink:href="#DejaVuSans-72" x="360.595703"/>
      <use xlink:href="#DejaVuSans-20" x="401.708984"/>
      <use xlink:href="#DejaVuSans-6f" x="433.496094"/>
      <use xlink:href="#DejaVuSans-66" x="494.677734"/>
      <use xlink:href="#DejaVuSans-20" x="529.882812"/>
      <use xlink:href="#DejaVuSans-6f" x="561.669922"/>
      <use xlink:href="#DejaVuSans-63" x="622.851562"/>
      <use xlink:href="#DejaVuSans-63" x="677.832031"/>
      <use xlink:href="#DejaVuSans-75" x="732.8125"/>
      <use xlink:href="#DejaVuSans-72" x="796.191406"/>
      <use xlink:href="#DejaVuSans-72" x="835.554688"/>
      <use xlink:href="#DejaVuSans-65" x="874.417969"/>
      <use xlink:href="#DejaVuSans-6e" x="935.941406"/>
      <use xlink:href="#DejaVuSans-63" x="999.320312"/>
      <use xlink:href="#DejaVuSans-65" x="1054.300781"/>
      <use xlink:href="#DejaVuSans-73" x="1115.824219"/>
     </g>
    </g>
   </g>
   <g id="patch_300">
    <path d="M 57.6 307.584 
L 57.6 41.472 
" style="fill: none; stroke: #000000; stroke-width: 0.8; stroke-linejoin: miter; stroke-linecap: square"/>
   </g>
   <g id="patch_301">
    <path d="M 414.72 307.584 
L 414.72 41.472 
" style="fill: none; stroke: #000000; stroke-width: 0.8; stroke-linejoin: miter; stroke-linecap: square"/>
   </g>
   <g id="patch_302">
    <path d="M 57.6 307.584 
L 414.72 307.584 
" style="fill: none; stroke: #000000; stroke-width: 0.8; stroke-linejoin: miter; stroke-linecap: square"/>
   </g>
   <g id="patch_303">
    <path d="M 57.6 41.472 
L 414.72 41.472 
" style="fill: none; stroke: #000000; stroke-width: 0.8; stroke-linejoin: miter; stroke-linecap: square"/>
   </g>
  </g>
 </g>
 <defs>
  <clipPath id="p816a077e8a">
   <rect x="57.6" y="41.472" width="357.12" height="266.112"/>
  </clipPath>
 </defs>
</svg>
